G04 #@! TF.GenerationSoftware,KiCad,Pcbnew,(5.1.8)-1*
G04 #@! TF.CreationDate,2021-01-24T13:56:55+09:00*
G04 #@! TF.ProjectId,USB-Audio-PCM2906,5553422d-4175-4646-996f-2d50434d3239,rev?*
G04 #@! TF.SameCoordinates,Original*
G04 #@! TF.FileFunction,Legend,Bot*
G04 #@! TF.FilePolarity,Positive*
%FSLAX46Y46*%
G04 Gerber Fmt 4.6, Leading zero omitted, Abs format (unit mm)*
G04 Created by KiCad (PCBNEW (5.1.8)-1) date 2021-01-24 13:56:55*
%MOMM*%
%LPD*%
G01*
G04 APERTURE LIST*
%ADD10C,0.152400*%
%ADD11C,0.150000*%
%ADD12O,1.500000X3.000000*%
%ADD13C,1.701800*%
%ADD14C,1.498600*%
%ADD15R,1.200000X2.000000*%
%ADD16C,0.508000*%
G04 APERTURE END LIST*
D10*
G04 #@! TO.C,J1*
X154159000Y-117146000D02*
G75*
G03*
X154159000Y-117146000I-381000J0D01*
G01*
D11*
G04 #@! TO.C,LS1*
X141000000Y-98300000D02*
X141000000Y-92100000D01*
X156000000Y-98300000D02*
X141000000Y-98300000D01*
X156000000Y-92100000D02*
X156000000Y-98300000D01*
X142300000Y-90000000D02*
X154700000Y-90000000D01*
X149242857Y-97852380D02*
X149719047Y-97852380D01*
X149719047Y-96852380D01*
X148957142Y-97804761D02*
X148814285Y-97852380D01*
X148576190Y-97852380D01*
X148480952Y-97804761D01*
X148433333Y-97757142D01*
X148385714Y-97661904D01*
X148385714Y-97566666D01*
X148433333Y-97471428D01*
X148480952Y-97423809D01*
X148576190Y-97376190D01*
X148766666Y-97328571D01*
X148861904Y-97280952D01*
X148909523Y-97233333D01*
X148957142Y-97138095D01*
X148957142Y-97042857D01*
X148909523Y-96947619D01*
X148861904Y-96900000D01*
X148766666Y-96852380D01*
X148528571Y-96852380D01*
X148385714Y-96900000D01*
X147433333Y-97852380D02*
X148004761Y-97852380D01*
X147719047Y-97852380D02*
X147719047Y-96852380D01*
X147814285Y-96995238D01*
X147909523Y-97090476D01*
X148004761Y-97138095D01*
G04 #@! TD*
%LPC*%
D12*
G04 #@! TO.C,J1*
X154350000Y-119571994D03*
X142650001Y-119571994D03*
D13*
X150800001Y-119500000D03*
X146200000Y-119500000D03*
D14*
X152000000Y-117400000D03*
X149500001Y-117400000D03*
X147500000Y-117400000D03*
X145000002Y-117400000D03*
G04 #@! TD*
D15*
G04 #@! TO.C,LS1*
X141600000Y-91000000D03*
X155400000Y-91000000D03*
G04 #@! TD*
D16*
G04 #@! TO.C,U4*
X144400000Y-91906300D03*
X144400000Y-92693700D03*
G04 #@! TD*
M02*
