G04 #@! TF.GenerationSoftware,KiCad,Pcbnew,(5.1.8)-1*
G04 #@! TF.CreationDate,2021-01-24T13:56:55+09:00*
G04 #@! TF.ProjectId,USB-Audio-PCM2906,5553422d-4175-4646-996f-2d50434d3239,rev?*
G04 #@! TF.SameCoordinates,Original*
G04 #@! TF.FileFunction,Soldermask,Top*
G04 #@! TF.FilePolarity,Negative*
%FSLAX46Y46*%
G04 Gerber Fmt 4.6, Leading zero omitted, Abs format (unit mm)*
G04 Created by KiCad (PCBNEW (5.1.8)-1) date 2021-01-24 13:56:55*
%MOMM*%
%LPD*%
G01*
G04 APERTURE LIST*
%ADD10C,0.152400*%
%ADD11O,1.500000X3.000000*%
%ADD12C,1.701800*%
%ADD13C,1.498600*%
%ADD14R,0.500000X0.900000*%
%ADD15R,0.750000X0.800000*%
%ADD16R,0.800000X0.750000*%
%ADD17R,0.900000X0.500000*%
%ADD18R,0.650000X0.250000*%
%ADD19R,1.350000X0.600000*%
%ADD20R,0.431000X1.639799*%
%ADD21C,0.508000*%
%ADD22R,1.500000X1.750000*%
%ADD23R,0.850000X0.350000*%
%ADD24R,0.400000X1.900000*%
G04 APERTURE END LIST*
D10*
G04 #@! TO.C,U4*
X142430001Y-91080000D02*
X142430001Y-91569999D01*
X142430001Y-91569999D02*
X143419999Y-91569999D01*
X143419999Y-91569999D02*
X143419999Y-91080000D01*
X143419999Y-91080000D02*
X142430001Y-91080000D01*
X142430001Y-91730001D02*
X142430001Y-92220000D01*
X142430001Y-92220000D02*
X143419999Y-92220000D01*
X143419999Y-92220000D02*
X143419999Y-91730001D01*
X143419999Y-91730001D02*
X142430001Y-91730001D01*
X142430001Y-92380000D02*
X142430001Y-92869999D01*
X142430001Y-92869999D02*
X143419999Y-92869999D01*
X143419999Y-92869999D02*
X143419999Y-92380000D01*
X143419999Y-92380000D02*
X142430001Y-92380000D01*
X142430001Y-93030001D02*
X142430001Y-93520000D01*
X142430001Y-93520000D02*
X143419999Y-93520000D01*
X143419999Y-93520000D02*
X143419999Y-93030001D01*
X143419999Y-93030001D02*
X142430001Y-93030001D01*
X145380001Y-93030001D02*
X145380001Y-93520000D01*
X145380001Y-93520000D02*
X146369999Y-93520000D01*
X146369999Y-93520000D02*
X146369999Y-93030001D01*
X146369999Y-93030001D02*
X145380001Y-93030001D01*
X145380001Y-92380000D02*
X145380001Y-92869999D01*
X145380001Y-92869999D02*
X146369999Y-92869999D01*
X146369999Y-92869999D02*
X146369999Y-92380000D01*
X146369999Y-92380000D02*
X145380001Y-92380000D01*
X145380001Y-91730001D02*
X145380001Y-92220000D01*
X145380001Y-92220000D02*
X146369999Y-92220000D01*
X146369999Y-92220000D02*
X146369999Y-91730001D01*
X146369999Y-91730001D02*
X145380001Y-91730001D01*
X145380001Y-91080000D02*
X145380001Y-91569999D01*
X145380001Y-91569999D02*
X146369999Y-91569999D01*
X146369999Y-91569999D02*
X146369999Y-91080000D01*
X146369999Y-91080000D02*
X145380001Y-91080000D01*
X144400000Y-91425000D02*
X144400000Y-91425000D01*
X144400000Y-91425000D02*
X144400000Y-91425000D01*
X144400000Y-91425000D02*
X144400000Y-91425000D01*
X144400000Y-91425000D02*
X144400000Y-91425000D01*
X144400000Y-91425000D02*
X144400000Y-91425000D01*
X144400000Y-91425000D02*
X144400000Y-91425000D01*
X144400000Y-91425000D02*
X144400000Y-91425000D01*
X144400000Y-91425000D02*
X144400000Y-91425000D01*
X144400000Y-93175000D02*
X144400000Y-93175000D01*
X144400000Y-93175000D02*
X144400000Y-93175000D01*
X144400000Y-93175000D02*
X144400000Y-93175000D01*
X144400000Y-93175000D02*
X144400000Y-93175000D01*
X144400000Y-93175000D02*
X144400000Y-93175000D01*
X144400000Y-93175000D02*
X144400000Y-93175000D01*
X144400000Y-93175000D02*
X144400000Y-93175000D01*
X144400000Y-93175000D02*
X144400000Y-93175000D01*
X143853200Y-91425000D02*
X143853200Y-90725000D01*
X143853200Y-90725000D02*
X144083200Y-90725000D01*
X144083200Y-90725000D02*
X144083200Y-91425000D01*
X144083200Y-91425000D02*
X143853200Y-91425000D01*
X144946800Y-91425000D02*
X144946800Y-90725000D01*
X144946800Y-90725000D02*
X144716800Y-90725000D01*
X144716800Y-90725000D02*
X144716800Y-91425000D01*
X144716800Y-91425000D02*
X144946800Y-91425000D01*
X144946800Y-93175000D02*
X144946800Y-93875000D01*
X144946800Y-93875000D02*
X144716800Y-93875000D01*
X144716800Y-93875000D02*
X144716800Y-93175000D01*
X144716800Y-93175000D02*
X144946800Y-93175000D01*
X143853200Y-93175000D02*
X143853200Y-93875000D01*
X143853200Y-93875000D02*
X144083200Y-93875000D01*
X144083200Y-93875000D02*
X144083200Y-93175000D01*
X144083200Y-93175000D02*
X143853200Y-93175000D01*
X143586500Y-91361500D02*
X145213500Y-91361500D01*
X145213500Y-91361500D02*
X145213500Y-91706300D01*
X145213500Y-91706300D02*
X143586500Y-91706300D01*
X143586500Y-91706300D02*
X143586500Y-91361500D01*
X143586500Y-92106300D02*
X145213500Y-92106300D01*
X145213500Y-92106300D02*
X145213500Y-92493700D01*
X145213500Y-92493700D02*
X143586500Y-92493700D01*
X143586500Y-92493700D02*
X143586500Y-92106300D01*
X143586500Y-92893700D02*
X145213500Y-92893700D01*
X145213500Y-92893700D02*
X145213500Y-93238500D01*
X145213500Y-93238500D02*
X143586500Y-93238500D01*
X143586500Y-93238500D02*
X143586500Y-92893700D01*
X143586500Y-91361500D02*
X144200000Y-91361500D01*
X144200000Y-91361500D02*
X144200000Y-93238500D01*
X144200000Y-93238500D02*
X143586500Y-93238500D01*
X143586500Y-93238500D02*
X143586500Y-91361500D01*
X144600000Y-91361500D02*
X145213500Y-91361500D01*
X145213500Y-91361500D02*
X145213500Y-93238500D01*
X145213500Y-93238500D02*
X144600000Y-93238500D01*
X144600000Y-93238500D02*
X144600000Y-91361500D01*
G04 #@! TD*
D11*
G04 #@! TO.C,J1*
X154350000Y-119571994D03*
X142650001Y-119571994D03*
D12*
X150800001Y-119500000D03*
X146200000Y-119500000D03*
D13*
X152000000Y-117400000D03*
X149500001Y-117400000D03*
X147500000Y-117400000D03*
X145000002Y-117400000D03*
G04 #@! TD*
D14*
G04 #@! TO.C,R9*
X143700000Y-96200000D03*
X142200000Y-96200000D03*
G04 #@! TD*
D15*
G04 #@! TO.C,C13*
X142200000Y-98950000D03*
X142200000Y-100450000D03*
G04 #@! TD*
G04 #@! TO.C,C1*
X146100000Y-113100000D03*
X146100000Y-111600000D03*
G04 #@! TD*
G04 #@! TO.C,C2*
X149500000Y-111600000D03*
X149500000Y-113100000D03*
G04 #@! TD*
G04 #@! TO.C,C3*
X152100000Y-113100000D03*
X152100000Y-111600000D03*
G04 #@! TD*
D16*
G04 #@! TO.C,C4*
X153750000Y-94400000D03*
X155250000Y-94400000D03*
G04 #@! TD*
G04 #@! TO.C,C5*
X152150000Y-94400000D03*
X150650000Y-94400000D03*
G04 #@! TD*
D15*
G04 #@! TO.C,C6*
X145600000Y-100650000D03*
X145600000Y-99150000D03*
G04 #@! TD*
G04 #@! TO.C,C7*
X150200000Y-99150000D03*
X150200000Y-100650000D03*
G04 #@! TD*
G04 #@! TO.C,C8*
X151500000Y-99150000D03*
X151500000Y-100650000D03*
G04 #@! TD*
G04 #@! TO.C,C9*
X144300000Y-100650000D03*
X144300000Y-99150000D03*
G04 #@! TD*
G04 #@! TO.C,C10*
X152800000Y-100650000D03*
X152800000Y-99150000D03*
G04 #@! TD*
G04 #@! TO.C,C11*
X154100000Y-100650000D03*
X154100000Y-99150000D03*
G04 #@! TD*
D16*
G04 #@! TO.C,C12*
X142150000Y-97600000D03*
X143650000Y-97600000D03*
G04 #@! TD*
D15*
G04 #@! TO.C,C14*
X147300000Y-93350000D03*
X147300000Y-91850000D03*
G04 #@! TD*
G04 #@! TO.C,C15*
X148700000Y-91850000D03*
X148700000Y-93350000D03*
G04 #@! TD*
D17*
G04 #@! TO.C,F1*
X154000000Y-117050000D03*
X154000000Y-115550000D03*
G04 #@! TD*
G04 #@! TO.C,R1*
X147600000Y-114250000D03*
X147600000Y-115750000D03*
G04 #@! TD*
G04 #@! TO.C,R2*
X149100000Y-115750000D03*
X149100000Y-114250000D03*
G04 #@! TD*
D14*
G04 #@! TO.C,R3*
X151250000Y-114800000D03*
X152750000Y-114800000D03*
G04 #@! TD*
D17*
G04 #@! TO.C,R4*
X142300000Y-111850000D03*
X142300000Y-110350000D03*
G04 #@! TD*
D14*
G04 #@! TO.C,R5*
X148650000Y-100600000D03*
X147150000Y-100600000D03*
G04 #@! TD*
D17*
G04 #@! TO.C,R6*
X152500000Y-96500000D03*
X152500000Y-98000000D03*
G04 #@! TD*
G04 #@! TO.C,R7*
X153900000Y-98000000D03*
X153900000Y-96500000D03*
G04 #@! TD*
D14*
G04 #@! TO.C,R8*
X143700000Y-94700000D03*
X142200000Y-94700000D03*
G04 #@! TD*
D18*
G04 #@! TO.C,U1*
X142525000Y-114900000D03*
X142525000Y-114400000D03*
X142525000Y-113900000D03*
X143475000Y-114900000D03*
X143475000Y-114400000D03*
X143475000Y-113900000D03*
G04 #@! TD*
D19*
G04 #@! TO.C,U2*
X154285000Y-92850000D03*
X154285000Y-91900000D03*
X154285000Y-90950000D03*
X151915000Y-90950000D03*
X151915000Y-92850000D03*
G04 #@! TD*
D20*
G04 #@! TO.C,U3*
X143675000Y-109732200D03*
X144325001Y-109732200D03*
X144975000Y-109732200D03*
X145625001Y-109732200D03*
X146274999Y-109732200D03*
X146925001Y-109732200D03*
X147574999Y-109732200D03*
X148224998Y-109732200D03*
X148874999Y-109732200D03*
X149524998Y-109732200D03*
X150174999Y-109732200D03*
X150824998Y-109732200D03*
X151474999Y-109732200D03*
X152124998Y-109732200D03*
X152125000Y-102467800D03*
X151474999Y-102467800D03*
X150825000Y-102467800D03*
X150174999Y-102467800D03*
X149525001Y-102467800D03*
X148874999Y-102467800D03*
X148225001Y-102467800D03*
X147574999Y-102467800D03*
X146925001Y-102467800D03*
X146274999Y-102467800D03*
X145625001Y-102467800D03*
X144975000Y-102467800D03*
X144325001Y-102467800D03*
X143675000Y-102467800D03*
G04 #@! TD*
D21*
G04 #@! TO.C,U4*
X144400000Y-91906300D03*
X144400000Y-92693700D03*
D22*
X144400000Y-92300000D03*
D23*
X145875001Y-91325001D03*
X145875001Y-91974999D03*
X145875001Y-92625001D03*
X145875001Y-93274999D03*
X142924999Y-93274999D03*
X142924999Y-92625001D03*
X142924999Y-91974999D03*
X142924999Y-91325001D03*
G04 #@! TD*
D24*
G04 #@! TO.C,Y1*
X146700000Y-98700000D03*
X147900000Y-98700000D03*
X149100000Y-98700000D03*
G04 #@! TD*
M02*
