M48
; DRILL file {KiCad (5.1.8)-1} date 01/11/21 17:57:04
; FORMAT={3:3/ absolute / metric / suppress leading zeros}
; #@! TF.CreationDate,2021-01-11T17:57:04+09:00
; #@! TF.GenerationSoftware,Kicad,Pcbnew,(5.1.8)-1
FMAT,2
METRIC,TZ
T1C0.025
T2C0.254
T3C0.400
T4C0.991
T5C1.194
T6C1.000
%
G90
G05
T1
X142650Y-119572
X154350Y-119572
T2
X144400Y-91906
X144400Y-92694
T3
X141950Y-92600
X142000Y-115700
X142100Y-97200
X143400Y-112700
X144200Y-98100
X144400Y-111800
X144600Y-113900
X144800Y-94600
X145000Y-103900
X145600Y-108200
X145900Y-98000
X146700Y-91000
X147200Y-113200
X147600Y-103900
X147600Y-111500
X147900Y-97200
X149500Y-94400
X149591Y-91000
X150200Y-98100
X150200Y-103900
X150200Y-108200
X150600Y-113500
X151350Y-98050
X151450Y-95600
X153200Y-113500
X155200Y-95300
T4
X145000Y-117400
X147500Y-117400
X149500Y-117400
X152000Y-117400
T5
X146200Y-119500
X150800Y-119500
T6
X142650Y-118822
X142650Y-120322
X154350Y-118822
X154350Y-120322
T0
M30
