G04 #@! TF.GenerationSoftware,KiCad,Pcbnew,(5.1.8)-1*
G04 #@! TF.CreationDate,2021-01-24T13:56:55+09:00*
G04 #@! TF.ProjectId,USB-Audio-PCM2906,5553422d-4175-4646-996f-2d50434d3239,rev?*
G04 #@! TF.SameCoordinates,Original*
G04 #@! TF.FileFunction,Legend,Top*
G04 #@! TF.FilePolarity,Positive*
%FSLAX46Y46*%
G04 Gerber Fmt 4.6, Leading zero omitted, Abs format (unit mm)*
G04 Created by KiCad (PCBNEW (5.1.8)-1) date 2021-01-24 13:56:55*
%MOMM*%
%LPD*%
G01*
G04 APERTURE LIST*
%ADD10C,0.152400*%
%ADD11C,0.120000*%
%ADD12C,0.150000*%
%ADD13C,0.200000*%
%ADD14C,0.127000*%
%ADD15O,1.500000X3.000000*%
%ADD16C,1.701800*%
%ADD17C,1.498600*%
%ADD18R,0.500000X0.900000*%
%ADD19R,0.750000X0.800000*%
%ADD20R,0.800000X0.750000*%
%ADD21R,0.900000X0.500000*%
%ADD22R,0.650000X0.250000*%
%ADD23R,1.350000X0.600000*%
%ADD24R,0.431000X1.639799*%
%ADD25C,0.508000*%
%ADD26R,1.500000X1.750000*%
%ADD27R,0.850000X0.350000*%
%ADD28R,0.400000X1.900000*%
G04 APERTURE END LIST*
D10*
G04 #@! TO.C,J1*
X144425441Y-119373000D02*
X143736741Y-119373000D01*
X153263260Y-119373000D02*
X152574561Y-119373000D01*
D11*
G04 #@! TO.C,R9*
X143450000Y-96880000D02*
X142450000Y-96880000D01*
X142450000Y-95520000D02*
X143450000Y-95520000D01*
G04 #@! TO.C,C13*
X141600000Y-100050000D02*
X141600000Y-99350000D01*
X142800000Y-99350000D02*
X142800000Y-100050000D01*
G04 #@! TO.C,C1*
X146700000Y-112000000D02*
X146700000Y-112700000D01*
X145500000Y-112700000D02*
X145500000Y-112000000D01*
G04 #@! TO.C,C2*
X148900000Y-112700000D02*
X148900000Y-112000000D01*
X150100000Y-112000000D02*
X150100000Y-112700000D01*
G04 #@! TO.C,C3*
X152700000Y-112000000D02*
X152700000Y-112700000D01*
X151500000Y-112700000D02*
X151500000Y-112000000D01*
G04 #@! TO.C,C4*
X154850000Y-95000000D02*
X154150000Y-95000000D01*
X154150000Y-93800000D02*
X154850000Y-93800000D01*
G04 #@! TO.C,C5*
X151050000Y-93800000D02*
X151750000Y-93800000D01*
X151750000Y-95000000D02*
X151050000Y-95000000D01*
G04 #@! TO.C,C6*
X146200000Y-99550000D02*
X146200000Y-100250000D01*
X145000000Y-100250000D02*
X145000000Y-99550000D01*
G04 #@! TO.C,C7*
X149600000Y-100250000D02*
X149600000Y-99550000D01*
X150800000Y-99550000D02*
X150800000Y-100250000D01*
G04 #@! TO.C,C8*
X150900000Y-100250000D02*
X150900000Y-99550000D01*
X152100000Y-99550000D02*
X152100000Y-100250000D01*
G04 #@! TO.C,C9*
X144900000Y-99550000D02*
X144900000Y-100250000D01*
X143700000Y-100250000D02*
X143700000Y-99550000D01*
G04 #@! TO.C,C10*
X153400000Y-99550000D02*
X153400000Y-100250000D01*
X152200000Y-100250000D02*
X152200000Y-99550000D01*
G04 #@! TO.C,C11*
X154700000Y-99550000D02*
X154700000Y-100250000D01*
X153500000Y-100250000D02*
X153500000Y-99550000D01*
G04 #@! TO.C,C12*
X143250000Y-98200000D02*
X142550000Y-98200000D01*
X142550000Y-97000000D02*
X143250000Y-97000000D01*
G04 #@! TO.C,C14*
X147900000Y-92250000D02*
X147900000Y-92950000D01*
X146700000Y-92950000D02*
X146700000Y-92250000D01*
G04 #@! TO.C,C15*
X148100000Y-92950000D02*
X148100000Y-92250000D01*
X149300000Y-92250000D02*
X149300000Y-92950000D01*
G04 #@! TO.C,F1*
X153320000Y-116800000D02*
X153320000Y-115800000D01*
X154680000Y-115800000D02*
X154680000Y-116800000D01*
G04 #@! TO.C,R1*
X148280000Y-114500000D02*
X148280000Y-115500000D01*
X146920000Y-115500000D02*
X146920000Y-114500000D01*
G04 #@! TO.C,R2*
X148420000Y-115500000D02*
X148420000Y-114500000D01*
X149780000Y-114500000D02*
X149780000Y-115500000D01*
G04 #@! TO.C,R3*
X151500000Y-114120000D02*
X152500000Y-114120000D01*
X152500000Y-115480000D02*
X151500000Y-115480000D01*
G04 #@! TO.C,R4*
X141620000Y-111600000D02*
X141620000Y-110600000D01*
X142980000Y-110600000D02*
X142980000Y-111600000D01*
G04 #@! TO.C,R5*
X148400000Y-101280000D02*
X147400000Y-101280000D01*
X147400000Y-99920000D02*
X148400000Y-99920000D01*
G04 #@! TO.C,R6*
X153180000Y-96750000D02*
X153180000Y-97750000D01*
X151820000Y-97750000D02*
X151820000Y-96750000D01*
G04 #@! TO.C,R7*
X153220000Y-97750000D02*
X153220000Y-96750000D01*
X154580000Y-96750000D02*
X154580000Y-97750000D01*
G04 #@! TO.C,R8*
X143450000Y-95380000D02*
X142450000Y-95380000D01*
X142450000Y-94020000D02*
X143450000Y-94020000D01*
D12*
G04 #@! TO.C,U1*
X142200000Y-113700000D02*
X143500000Y-113700000D01*
X143500000Y-115100000D02*
X142500000Y-115100000D01*
D13*
G04 #@! TO.C,U2*
X155669000Y-92850000D02*
G75*
G03*
X155669000Y-92850000I-100000J0D01*
G01*
D14*
X153950000Y-93450000D02*
X153950000Y-93350000D01*
X152250000Y-93450000D02*
X152250000Y-93350000D01*
X152250000Y-90350000D02*
X152250000Y-90450000D01*
X153950000Y-90350000D02*
X153950000Y-90450000D01*
X152250000Y-90350000D02*
X153950000Y-90350000D01*
X152250000Y-93450000D02*
X153950000Y-93450000D01*
D10*
G04 #@! TO.C,U3*
X153272100Y-109021000D02*
X153272100Y-103179000D01*
X153272100Y-103179000D02*
X152673240Y-103179000D01*
X142527900Y-103179000D02*
X142527900Y-109021000D01*
X142527900Y-109021000D02*
X143126760Y-109021000D01*
X152673238Y-109021000D02*
X153272100Y-109021000D01*
X143126760Y-103179000D02*
X142527900Y-103179000D01*
X149334498Y-111060099D02*
X149715498Y-111060099D01*
X149715498Y-111060099D02*
X149715498Y-110806099D01*
X149715498Y-110806099D02*
X149334498Y-110806099D01*
X149334498Y-110806099D02*
X149334498Y-111060099D01*
X148684499Y-101139901D02*
X149065499Y-101139901D01*
X149065499Y-101139901D02*
X149065499Y-101393901D01*
X149065499Y-101393901D02*
X148684499Y-101393901D01*
X148684499Y-101393901D02*
X148684499Y-101139901D01*
G04 #@! TO.C,U4*
X142698001Y-94001999D02*
X143545650Y-94001999D01*
X146101999Y-94001999D02*
X146101999Y-93782739D01*
X146101999Y-90598001D02*
X145254350Y-90598001D01*
X142698001Y-90598001D02*
X142698001Y-90817261D01*
X142698001Y-93782739D02*
X142698001Y-94001999D01*
X146101999Y-90817261D02*
X146101999Y-90598001D01*
X143545650Y-90598001D02*
X142698001Y-90598001D01*
X145254350Y-94001999D02*
X146101999Y-94001999D01*
D11*
G04 #@! TO.C,Y1*
X149500000Y-99400000D02*
X149500000Y-98000000D01*
X149500000Y-98000000D02*
X146300000Y-98000000D01*
X146300000Y-98000000D02*
X146300000Y-99400000D01*
X149500000Y-99400000D02*
X146300000Y-99400000D01*
G04 #@! TO.C,J1*
D12*
X143066666Y-116752380D02*
X143066666Y-117466666D01*
X143019047Y-117609523D01*
X142923809Y-117704761D01*
X142780952Y-117752380D01*
X142685714Y-117752380D01*
X144066666Y-117752380D02*
X143495238Y-117752380D01*
X143780952Y-117752380D02*
X143780952Y-116752380D01*
X143685714Y-116895238D01*
X143590476Y-116990476D01*
X143495238Y-117038095D01*
X152800000Y-115752380D02*
X152800000Y-115990476D01*
X152561904Y-115895238D02*
X152800000Y-115990476D01*
X153038095Y-115895238D01*
X152657142Y-116180952D02*
X152800000Y-115990476D01*
X152942857Y-116180952D01*
G04 #@! TO.C,R9*
X144633333Y-96752380D02*
X144300000Y-96276190D01*
X144061904Y-96752380D02*
X144061904Y-95752380D01*
X144442857Y-95752380D01*
X144538095Y-95800000D01*
X144585714Y-95847619D01*
X144633333Y-95942857D01*
X144633333Y-96085714D01*
X144585714Y-96180952D01*
X144538095Y-96228571D01*
X144442857Y-96276190D01*
X144061904Y-96276190D01*
X145109523Y-96752380D02*
X145300000Y-96752380D01*
X145395238Y-96704761D01*
X145442857Y-96657142D01*
X145538095Y-96514285D01*
X145585714Y-96323809D01*
X145585714Y-95942857D01*
X145538095Y-95847619D01*
X145490476Y-95800000D01*
X145395238Y-95752380D01*
X145204761Y-95752380D01*
X145109523Y-95800000D01*
X145061904Y-95847619D01*
X145014285Y-95942857D01*
X145014285Y-96180952D01*
X145061904Y-96276190D01*
X145109523Y-96323809D01*
X145204761Y-96371428D01*
X145395238Y-96371428D01*
X145490476Y-96323809D01*
X145538095Y-96276190D01*
X145585714Y-96180952D01*
G04 #@! TO.C,C13*
X141985714Y-102614285D02*
X142023809Y-102652380D01*
X142061904Y-102766666D01*
X142061904Y-102842857D01*
X142023809Y-102957142D01*
X141947619Y-103033333D01*
X141871428Y-103071428D01*
X141719047Y-103109523D01*
X141604761Y-103109523D01*
X141452380Y-103071428D01*
X141376190Y-103033333D01*
X141300000Y-102957142D01*
X141261904Y-102842857D01*
X141261904Y-102766666D01*
X141300000Y-102652380D01*
X141338095Y-102614285D01*
X142061904Y-101852380D02*
X142061904Y-102309523D01*
X142061904Y-102080952D02*
X141261904Y-102080952D01*
X141376190Y-102157142D01*
X141452380Y-102233333D01*
X141490476Y-102309523D01*
X141261904Y-101585714D02*
X141261904Y-101090476D01*
X141566666Y-101357142D01*
X141566666Y-101242857D01*
X141604761Y-101166666D01*
X141642857Y-101128571D01*
X141719047Y-101090476D01*
X141909523Y-101090476D01*
X141985714Y-101128571D01*
X142023809Y-101166666D01*
X142061904Y-101242857D01*
X142061904Y-101471428D01*
X142023809Y-101547619D01*
X141985714Y-101585714D01*
G04 #@! TO.C,C1*
X145207142Y-112866666D02*
X145254761Y-112914285D01*
X145302380Y-113057142D01*
X145302380Y-113152380D01*
X145254761Y-113295238D01*
X145159523Y-113390476D01*
X145064285Y-113438095D01*
X144873809Y-113485714D01*
X144730952Y-113485714D01*
X144540476Y-113438095D01*
X144445238Y-113390476D01*
X144350000Y-113295238D01*
X144302380Y-113152380D01*
X144302380Y-113057142D01*
X144350000Y-112914285D01*
X144397619Y-112866666D01*
X145302380Y-111914285D02*
X145302380Y-112485714D01*
X145302380Y-112200000D02*
X144302380Y-112200000D01*
X144445238Y-112295238D01*
X144540476Y-112390476D01*
X144588095Y-112485714D01*
G04 #@! TO.C,C2*
X151157142Y-112616666D02*
X151204761Y-112664285D01*
X151252380Y-112807142D01*
X151252380Y-112902380D01*
X151204761Y-113045238D01*
X151109523Y-113140476D01*
X151014285Y-113188095D01*
X150823809Y-113235714D01*
X150680952Y-113235714D01*
X150490476Y-113188095D01*
X150395238Y-113140476D01*
X150300000Y-113045238D01*
X150252380Y-112902380D01*
X150252380Y-112807142D01*
X150300000Y-112664285D01*
X150347619Y-112616666D01*
X150347619Y-112235714D02*
X150300000Y-112188095D01*
X150252380Y-112092857D01*
X150252380Y-111854761D01*
X150300000Y-111759523D01*
X150347619Y-111711904D01*
X150442857Y-111664285D01*
X150538095Y-111664285D01*
X150680952Y-111711904D01*
X151252380Y-112283333D01*
X151252380Y-111664285D01*
G04 #@! TO.C,C3*
X153857142Y-112516666D02*
X153904761Y-112564285D01*
X153952380Y-112707142D01*
X153952380Y-112802380D01*
X153904761Y-112945238D01*
X153809523Y-113040476D01*
X153714285Y-113088095D01*
X153523809Y-113135714D01*
X153380952Y-113135714D01*
X153190476Y-113088095D01*
X153095238Y-113040476D01*
X153000000Y-112945238D01*
X152952380Y-112802380D01*
X152952380Y-112707142D01*
X153000000Y-112564285D01*
X153047619Y-112516666D01*
X152952380Y-112183333D02*
X152952380Y-111564285D01*
X153333333Y-111897619D01*
X153333333Y-111754761D01*
X153380952Y-111659523D01*
X153428571Y-111611904D01*
X153523809Y-111564285D01*
X153761904Y-111564285D01*
X153857142Y-111611904D01*
X153904761Y-111659523D01*
X153952380Y-111754761D01*
X153952380Y-112040476D01*
X153904761Y-112135714D01*
X153857142Y-112183333D01*
G04 #@! TO.C,C4*
X153433333Y-95857142D02*
X153385714Y-95904761D01*
X153242857Y-95952380D01*
X153147619Y-95952380D01*
X153004761Y-95904761D01*
X152909523Y-95809523D01*
X152861904Y-95714285D01*
X152814285Y-95523809D01*
X152814285Y-95380952D01*
X152861904Y-95190476D01*
X152909523Y-95095238D01*
X153004761Y-95000000D01*
X153147619Y-94952380D01*
X153242857Y-94952380D01*
X153385714Y-95000000D01*
X153433333Y-95047619D01*
X154290476Y-95285714D02*
X154290476Y-95952380D01*
X154052380Y-94904761D02*
X153814285Y-95619047D01*
X154433333Y-95619047D01*
G04 #@! TO.C,C5*
X149933333Y-95857142D02*
X149885714Y-95904761D01*
X149742857Y-95952380D01*
X149647619Y-95952380D01*
X149504761Y-95904761D01*
X149409523Y-95809523D01*
X149361904Y-95714285D01*
X149314285Y-95523809D01*
X149314285Y-95380952D01*
X149361904Y-95190476D01*
X149409523Y-95095238D01*
X149504761Y-95000000D01*
X149647619Y-94952380D01*
X149742857Y-94952380D01*
X149885714Y-95000000D01*
X149933333Y-95047619D01*
X150838095Y-94952380D02*
X150361904Y-94952380D01*
X150314285Y-95428571D01*
X150361904Y-95380952D01*
X150457142Y-95333333D01*
X150695238Y-95333333D01*
X150790476Y-95380952D01*
X150838095Y-95428571D01*
X150885714Y-95523809D01*
X150885714Y-95761904D01*
X150838095Y-95857142D01*
X150790476Y-95904761D01*
X150695238Y-95952380D01*
X150457142Y-95952380D01*
X150361904Y-95904761D01*
X150314285Y-95857142D01*
G04 #@! TO.C,C6*
X146157142Y-97966666D02*
X146204761Y-98014285D01*
X146252380Y-98157142D01*
X146252380Y-98252380D01*
X146204761Y-98395238D01*
X146109523Y-98490476D01*
X146014285Y-98538095D01*
X145823809Y-98585714D01*
X145680952Y-98585714D01*
X145490476Y-98538095D01*
X145395238Y-98490476D01*
X145300000Y-98395238D01*
X145252380Y-98252380D01*
X145252380Y-98157142D01*
X145300000Y-98014285D01*
X145347619Y-97966666D01*
X145252380Y-97109523D02*
X145252380Y-97300000D01*
X145300000Y-97395238D01*
X145347619Y-97442857D01*
X145490476Y-97538095D01*
X145680952Y-97585714D01*
X146061904Y-97585714D01*
X146157142Y-97538095D01*
X146204761Y-97490476D01*
X146252380Y-97395238D01*
X146252380Y-97204761D01*
X146204761Y-97109523D01*
X146157142Y-97061904D01*
X146061904Y-97014285D01*
X145823809Y-97014285D01*
X145728571Y-97061904D01*
X145680952Y-97109523D01*
X145633333Y-97204761D01*
X145633333Y-97395238D01*
X145680952Y-97490476D01*
X145728571Y-97538095D01*
X145823809Y-97585714D01*
G04 #@! TO.C,C7*
X150557142Y-97866666D02*
X150604761Y-97914285D01*
X150652380Y-98057142D01*
X150652380Y-98152380D01*
X150604761Y-98295238D01*
X150509523Y-98390476D01*
X150414285Y-98438095D01*
X150223809Y-98485714D01*
X150080952Y-98485714D01*
X149890476Y-98438095D01*
X149795238Y-98390476D01*
X149700000Y-98295238D01*
X149652380Y-98152380D01*
X149652380Y-98057142D01*
X149700000Y-97914285D01*
X149747619Y-97866666D01*
X149652380Y-97533333D02*
X149652380Y-96866666D01*
X150652380Y-97295238D01*
G04 #@! TO.C,C8*
X151757142Y-97866666D02*
X151804761Y-97914285D01*
X151852380Y-98057142D01*
X151852380Y-98152380D01*
X151804761Y-98295238D01*
X151709523Y-98390476D01*
X151614285Y-98438095D01*
X151423809Y-98485714D01*
X151280952Y-98485714D01*
X151090476Y-98438095D01*
X150995238Y-98390476D01*
X150900000Y-98295238D01*
X150852380Y-98152380D01*
X150852380Y-98057142D01*
X150900000Y-97914285D01*
X150947619Y-97866666D01*
X151280952Y-97295238D02*
X151233333Y-97390476D01*
X151185714Y-97438095D01*
X151090476Y-97485714D01*
X151042857Y-97485714D01*
X150947619Y-97438095D01*
X150900000Y-97390476D01*
X150852380Y-97295238D01*
X150852380Y-97104761D01*
X150900000Y-97009523D01*
X150947619Y-96961904D01*
X151042857Y-96914285D01*
X151090476Y-96914285D01*
X151185714Y-96961904D01*
X151233333Y-97009523D01*
X151280952Y-97104761D01*
X151280952Y-97295238D01*
X151328571Y-97390476D01*
X151376190Y-97438095D01*
X151471428Y-97485714D01*
X151661904Y-97485714D01*
X151757142Y-97438095D01*
X151804761Y-97390476D01*
X151852380Y-97295238D01*
X151852380Y-97104761D01*
X151804761Y-97009523D01*
X151757142Y-96961904D01*
X151661904Y-96914285D01*
X151471428Y-96914285D01*
X151376190Y-96961904D01*
X151328571Y-97009523D01*
X151280952Y-97104761D01*
G04 #@! TO.C,C9*
X145057142Y-97966666D02*
X145104761Y-98014285D01*
X145152380Y-98157142D01*
X145152380Y-98252380D01*
X145104761Y-98395238D01*
X145009523Y-98490476D01*
X144914285Y-98538095D01*
X144723809Y-98585714D01*
X144580952Y-98585714D01*
X144390476Y-98538095D01*
X144295238Y-98490476D01*
X144200000Y-98395238D01*
X144152380Y-98252380D01*
X144152380Y-98157142D01*
X144200000Y-98014285D01*
X144247619Y-97966666D01*
X145152380Y-97490476D02*
X145152380Y-97300000D01*
X145104761Y-97204761D01*
X145057142Y-97157142D01*
X144914285Y-97061904D01*
X144723809Y-97014285D01*
X144342857Y-97014285D01*
X144247619Y-97061904D01*
X144200000Y-97109523D01*
X144152380Y-97204761D01*
X144152380Y-97395238D01*
X144200000Y-97490476D01*
X144247619Y-97538095D01*
X144342857Y-97585714D01*
X144580952Y-97585714D01*
X144676190Y-97538095D01*
X144723809Y-97490476D01*
X144771428Y-97395238D01*
X144771428Y-97204761D01*
X144723809Y-97109523D01*
X144676190Y-97061904D01*
X144580952Y-97014285D01*
G04 #@! TO.C,C10*
X154557142Y-103142857D02*
X154604761Y-103190476D01*
X154652380Y-103333333D01*
X154652380Y-103428571D01*
X154604761Y-103571428D01*
X154509523Y-103666666D01*
X154414285Y-103714285D01*
X154223809Y-103761904D01*
X154080952Y-103761904D01*
X153890476Y-103714285D01*
X153795238Y-103666666D01*
X153700000Y-103571428D01*
X153652380Y-103428571D01*
X153652380Y-103333333D01*
X153700000Y-103190476D01*
X153747619Y-103142857D01*
X154652380Y-102190476D02*
X154652380Y-102761904D01*
X154652380Y-102476190D02*
X153652380Y-102476190D01*
X153795238Y-102571428D01*
X153890476Y-102666666D01*
X153938095Y-102761904D01*
X153652380Y-101571428D02*
X153652380Y-101476190D01*
X153700000Y-101380952D01*
X153747619Y-101333333D01*
X153842857Y-101285714D01*
X154033333Y-101238095D01*
X154271428Y-101238095D01*
X154461904Y-101285714D01*
X154557142Y-101333333D01*
X154604761Y-101380952D01*
X154652380Y-101476190D01*
X154652380Y-101571428D01*
X154604761Y-101666666D01*
X154557142Y-101714285D01*
X154461904Y-101761904D01*
X154271428Y-101809523D01*
X154033333Y-101809523D01*
X153842857Y-101761904D01*
X153747619Y-101714285D01*
X153700000Y-101666666D01*
X153652380Y-101571428D01*
G04 #@! TO.C,C11*
X155757142Y-103142857D02*
X155804761Y-103190476D01*
X155852380Y-103333333D01*
X155852380Y-103428571D01*
X155804761Y-103571428D01*
X155709523Y-103666666D01*
X155614285Y-103714285D01*
X155423809Y-103761904D01*
X155280952Y-103761904D01*
X155090476Y-103714285D01*
X154995238Y-103666666D01*
X154900000Y-103571428D01*
X154852380Y-103428571D01*
X154852380Y-103333333D01*
X154900000Y-103190476D01*
X154947619Y-103142857D01*
X155852380Y-102190476D02*
X155852380Y-102761904D01*
X155852380Y-102476190D02*
X154852380Y-102476190D01*
X154995238Y-102571428D01*
X155090476Y-102666666D01*
X155138095Y-102761904D01*
X155852380Y-101238095D02*
X155852380Y-101809523D01*
X155852380Y-101523809D02*
X154852380Y-101523809D01*
X154995238Y-101619047D01*
X155090476Y-101714285D01*
X155138095Y-101809523D01*
G04 #@! TO.C,C12*
X141785714Y-96714285D02*
X141823809Y-96752380D01*
X141861904Y-96866666D01*
X141861904Y-96942857D01*
X141823809Y-97057142D01*
X141747619Y-97133333D01*
X141671428Y-97171428D01*
X141519047Y-97209523D01*
X141404761Y-97209523D01*
X141252380Y-97171428D01*
X141176190Y-97133333D01*
X141100000Y-97057142D01*
X141061904Y-96942857D01*
X141061904Y-96866666D01*
X141100000Y-96752380D01*
X141138095Y-96714285D01*
X141861904Y-95952380D02*
X141861904Y-96409523D01*
X141861904Y-96180952D02*
X141061904Y-96180952D01*
X141176190Y-96257142D01*
X141252380Y-96333333D01*
X141290476Y-96409523D01*
X141138095Y-95647619D02*
X141100000Y-95609523D01*
X141061904Y-95533333D01*
X141061904Y-95342857D01*
X141100000Y-95266666D01*
X141138095Y-95228571D01*
X141214285Y-95190476D01*
X141290476Y-95190476D01*
X141404761Y-95228571D01*
X141861904Y-95685714D01*
X141861904Y-95190476D01*
G04 #@! TO.C,C14*
X147057142Y-95057142D02*
X147009523Y-95104761D01*
X146866666Y-95152380D01*
X146771428Y-95152380D01*
X146628571Y-95104761D01*
X146533333Y-95009523D01*
X146485714Y-94914285D01*
X146438095Y-94723809D01*
X146438095Y-94580952D01*
X146485714Y-94390476D01*
X146533333Y-94295238D01*
X146628571Y-94200000D01*
X146771428Y-94152380D01*
X146866666Y-94152380D01*
X147009523Y-94200000D01*
X147057142Y-94247619D01*
X148009523Y-95152380D02*
X147438095Y-95152380D01*
X147723809Y-95152380D02*
X147723809Y-94152380D01*
X147628571Y-94295238D01*
X147533333Y-94390476D01*
X147438095Y-94438095D01*
X148866666Y-94485714D02*
X148866666Y-95152380D01*
X148628571Y-94104761D02*
X148390476Y-94819047D01*
X149009523Y-94819047D01*
G04 #@! TO.C,C15*
X150257142Y-93342857D02*
X150304761Y-93390476D01*
X150352380Y-93533333D01*
X150352380Y-93628571D01*
X150304761Y-93771428D01*
X150209523Y-93866666D01*
X150114285Y-93914285D01*
X149923809Y-93961904D01*
X149780952Y-93961904D01*
X149590476Y-93914285D01*
X149495238Y-93866666D01*
X149400000Y-93771428D01*
X149352380Y-93628571D01*
X149352380Y-93533333D01*
X149400000Y-93390476D01*
X149447619Y-93342857D01*
X150352380Y-92390476D02*
X150352380Y-92961904D01*
X150352380Y-92676190D02*
X149352380Y-92676190D01*
X149495238Y-92771428D01*
X149590476Y-92866666D01*
X149638095Y-92961904D01*
X149352380Y-91485714D02*
X149352380Y-91961904D01*
X149828571Y-92009523D01*
X149780952Y-91961904D01*
X149733333Y-91866666D01*
X149733333Y-91628571D01*
X149780952Y-91533333D01*
X149828571Y-91485714D01*
X149923809Y-91438095D01*
X150161904Y-91438095D01*
X150257142Y-91485714D01*
X150304761Y-91533333D01*
X150352380Y-91628571D01*
X150352380Y-91866666D01*
X150304761Y-91961904D01*
X150257142Y-92009523D01*
G04 #@! TO.C,F1*
X155328571Y-116633333D02*
X155328571Y-116966666D01*
X155852380Y-116966666D02*
X154852380Y-116966666D01*
X154852380Y-116490476D01*
X155852380Y-115585714D02*
X155852380Y-116157142D01*
X155852380Y-115871428D02*
X154852380Y-115871428D01*
X154995238Y-115966666D01*
X155090476Y-116061904D01*
X155138095Y-116157142D01*
G04 #@! TO.C,R1*
X146752380Y-115266666D02*
X146276190Y-115600000D01*
X146752380Y-115838095D02*
X145752380Y-115838095D01*
X145752380Y-115457142D01*
X145800000Y-115361904D01*
X145847619Y-115314285D01*
X145942857Y-115266666D01*
X146085714Y-115266666D01*
X146180952Y-115314285D01*
X146228571Y-115361904D01*
X146276190Y-115457142D01*
X146276190Y-115838095D01*
X146752380Y-114314285D02*
X146752380Y-114885714D01*
X146752380Y-114600000D02*
X145752380Y-114600000D01*
X145895238Y-114695238D01*
X145990476Y-114790476D01*
X146038095Y-114885714D01*
G04 #@! TO.C,R2*
X150852380Y-115166666D02*
X150376190Y-115500000D01*
X150852380Y-115738095D02*
X149852380Y-115738095D01*
X149852380Y-115357142D01*
X149900000Y-115261904D01*
X149947619Y-115214285D01*
X150042857Y-115166666D01*
X150185714Y-115166666D01*
X150280952Y-115214285D01*
X150328571Y-115261904D01*
X150376190Y-115357142D01*
X150376190Y-115738095D01*
X149947619Y-114785714D02*
X149900000Y-114738095D01*
X149852380Y-114642857D01*
X149852380Y-114404761D01*
X149900000Y-114309523D01*
X149947619Y-114261904D01*
X150042857Y-114214285D01*
X150138095Y-114214285D01*
X150280952Y-114261904D01*
X150852380Y-114833333D01*
X150852380Y-114214285D01*
G04 #@! TO.C,R3*
X153933333Y-114952380D02*
X153600000Y-114476190D01*
X153361904Y-114952380D02*
X153361904Y-113952380D01*
X153742857Y-113952380D01*
X153838095Y-114000000D01*
X153885714Y-114047619D01*
X153933333Y-114142857D01*
X153933333Y-114285714D01*
X153885714Y-114380952D01*
X153838095Y-114428571D01*
X153742857Y-114476190D01*
X153361904Y-114476190D01*
X154266666Y-113952380D02*
X154885714Y-113952380D01*
X154552380Y-114333333D01*
X154695238Y-114333333D01*
X154790476Y-114380952D01*
X154838095Y-114428571D01*
X154885714Y-114523809D01*
X154885714Y-114761904D01*
X154838095Y-114857142D01*
X154790476Y-114904761D01*
X154695238Y-114952380D01*
X154409523Y-114952380D01*
X154314285Y-114904761D01*
X154266666Y-114857142D01*
G04 #@! TO.C,R4*
X141933333Y-113352380D02*
X141600000Y-112876190D01*
X141361904Y-113352380D02*
X141361904Y-112352380D01*
X141742857Y-112352380D01*
X141838095Y-112400000D01*
X141885714Y-112447619D01*
X141933333Y-112542857D01*
X141933333Y-112685714D01*
X141885714Y-112780952D01*
X141838095Y-112828571D01*
X141742857Y-112876190D01*
X141361904Y-112876190D01*
X142790476Y-112685714D02*
X142790476Y-113352380D01*
X142552380Y-112304761D02*
X142314285Y-113019047D01*
X142933333Y-113019047D01*
G04 #@! TO.C,R5*
X147552380Y-96966666D02*
X147076190Y-97300000D01*
X147552380Y-97538095D02*
X146552380Y-97538095D01*
X146552380Y-97157142D01*
X146600000Y-97061904D01*
X146647619Y-97014285D01*
X146742857Y-96966666D01*
X146885714Y-96966666D01*
X146980952Y-97014285D01*
X147028571Y-97061904D01*
X147076190Y-97157142D01*
X147076190Y-97538095D01*
X146552380Y-96061904D02*
X146552380Y-96538095D01*
X147028571Y-96585714D01*
X146980952Y-96538095D01*
X146933333Y-96442857D01*
X146933333Y-96204761D01*
X146980952Y-96109523D01*
X147028571Y-96061904D01*
X147123809Y-96014285D01*
X147361904Y-96014285D01*
X147457142Y-96061904D01*
X147504761Y-96109523D01*
X147552380Y-96204761D01*
X147552380Y-96442857D01*
X147504761Y-96538095D01*
X147457142Y-96585714D01*
G04 #@! TO.C,R6*
X155752380Y-96716666D02*
X155276190Y-97050000D01*
X155752380Y-97288095D02*
X154752380Y-97288095D01*
X154752380Y-96907142D01*
X154800000Y-96811904D01*
X154847619Y-96764285D01*
X154942857Y-96716666D01*
X155085714Y-96716666D01*
X155180952Y-96764285D01*
X155228571Y-96811904D01*
X155276190Y-96907142D01*
X155276190Y-97288095D01*
X154752380Y-95859523D02*
X154752380Y-96050000D01*
X154800000Y-96145238D01*
X154847619Y-96192857D01*
X154990476Y-96288095D01*
X155180952Y-96335714D01*
X155561904Y-96335714D01*
X155657142Y-96288095D01*
X155704761Y-96240476D01*
X155752380Y-96145238D01*
X155752380Y-95954761D01*
X155704761Y-95859523D01*
X155657142Y-95811904D01*
X155561904Y-95764285D01*
X155323809Y-95764285D01*
X155228571Y-95811904D01*
X155180952Y-95859523D01*
X155133333Y-95954761D01*
X155133333Y-96145238D01*
X155180952Y-96240476D01*
X155228571Y-96288095D01*
X155323809Y-96335714D01*
G04 #@! TO.C,R7*
X155752380Y-98466666D02*
X155276190Y-98800000D01*
X155752380Y-99038095D02*
X154752380Y-99038095D01*
X154752380Y-98657142D01*
X154800000Y-98561904D01*
X154847619Y-98514285D01*
X154942857Y-98466666D01*
X155085714Y-98466666D01*
X155180952Y-98514285D01*
X155228571Y-98561904D01*
X155276190Y-98657142D01*
X155276190Y-99038095D01*
X154752380Y-98133333D02*
X154752380Y-97466666D01*
X155752380Y-97895238D01*
G04 #@! TO.C,R8*
X144633333Y-95252380D02*
X144300000Y-94776190D01*
X144061904Y-95252380D02*
X144061904Y-94252380D01*
X144442857Y-94252380D01*
X144538095Y-94300000D01*
X144585714Y-94347619D01*
X144633333Y-94442857D01*
X144633333Y-94585714D01*
X144585714Y-94680952D01*
X144538095Y-94728571D01*
X144442857Y-94776190D01*
X144061904Y-94776190D01*
X145204761Y-94680952D02*
X145109523Y-94633333D01*
X145061904Y-94585714D01*
X145014285Y-94490476D01*
X145014285Y-94442857D01*
X145061904Y-94347619D01*
X145109523Y-94300000D01*
X145204761Y-94252380D01*
X145395238Y-94252380D01*
X145490476Y-94300000D01*
X145538095Y-94347619D01*
X145585714Y-94442857D01*
X145585714Y-94490476D01*
X145538095Y-94585714D01*
X145490476Y-94633333D01*
X145395238Y-94680952D01*
X145204761Y-94680952D01*
X145109523Y-94728571D01*
X145061904Y-94776190D01*
X145014285Y-94871428D01*
X145014285Y-95061904D01*
X145061904Y-95157142D01*
X145109523Y-95204761D01*
X145204761Y-95252380D01*
X145395238Y-95252380D01*
X145490476Y-95204761D01*
X145538095Y-95157142D01*
X145585714Y-95061904D01*
X145585714Y-94871428D01*
X145538095Y-94776190D01*
X145490476Y-94728571D01*
X145395238Y-94680952D01*
G04 #@! TO.C,U1*
X141738095Y-115252380D02*
X141738095Y-116061904D01*
X141785714Y-116157142D01*
X141833333Y-116204761D01*
X141928571Y-116252380D01*
X142119047Y-116252380D01*
X142214285Y-116204761D01*
X142261904Y-116157142D01*
X142309523Y-116061904D01*
X142309523Y-115252380D01*
X143309523Y-116252380D02*
X142738095Y-116252380D01*
X143023809Y-116252380D02*
X143023809Y-115252380D01*
X142928571Y-115395238D01*
X142833333Y-115490476D01*
X142738095Y-115538095D01*
G04 #@! TO.C,U2*
X150488472Y-91460464D02*
X150488472Y-92110212D01*
X150526692Y-92186653D01*
X150564913Y-92224874D01*
X150641354Y-92263094D01*
X150794236Y-92263094D01*
X150870677Y-92224874D01*
X150908897Y-92186653D01*
X150947118Y-92110212D01*
X150947118Y-91460464D01*
X151291102Y-91536905D02*
X151329322Y-91498685D01*
X151405763Y-91460464D01*
X151596866Y-91460464D01*
X151673307Y-91498685D01*
X151711527Y-91536905D01*
X151749748Y-91613346D01*
X151749748Y-91689787D01*
X151711527Y-91804448D01*
X151252881Y-92263094D01*
X151749748Y-92263094D01*
G04 #@! TO.C,U3*
X141352380Y-108861904D02*
X142161904Y-108861904D01*
X142257142Y-108814285D01*
X142304761Y-108766666D01*
X142352380Y-108671428D01*
X142352380Y-108480952D01*
X142304761Y-108385714D01*
X142257142Y-108338095D01*
X142161904Y-108290476D01*
X141352380Y-108290476D01*
X141352380Y-107909523D02*
X141352380Y-107290476D01*
X141733333Y-107623809D01*
X141733333Y-107480952D01*
X141780952Y-107385714D01*
X141828571Y-107338095D01*
X141923809Y-107290476D01*
X142161904Y-107290476D01*
X142257142Y-107338095D01*
X142304761Y-107385714D01*
X142352380Y-107480952D01*
X142352380Y-107766666D01*
X142304761Y-107861904D01*
X142257142Y-107909523D01*
X142152380Y-109500000D02*
X142390476Y-109500000D01*
X142295238Y-109738095D02*
X142390476Y-109500000D01*
X142295238Y-109261904D01*
X142580952Y-109642857D02*
X142390476Y-109500000D01*
X142580952Y-109357142D01*
G04 #@! TO.C,U4*
X141152380Y-93055604D02*
X141961904Y-93055604D01*
X142057142Y-93007985D01*
X142104761Y-92960366D01*
X142152380Y-92865128D01*
X142152380Y-92674652D01*
X142104761Y-92579414D01*
X142057142Y-92531795D01*
X141961904Y-92484176D01*
X141152380Y-92484176D01*
X141485714Y-91579414D02*
X142152380Y-91579414D01*
X141104761Y-91817509D02*
X141819047Y-92055604D01*
X141819047Y-91436557D01*
X142300000Y-90352380D02*
X142300000Y-90590476D01*
X142061904Y-90495238D02*
X142300000Y-90590476D01*
X142538095Y-90495238D01*
X142157142Y-90780952D02*
X142300000Y-90590476D01*
X142442857Y-90780952D01*
G04 #@! TO.C,Y1*
X148123809Y-97176190D02*
X148123809Y-97652380D01*
X147790476Y-96652380D02*
X148123809Y-97176190D01*
X148457142Y-96652380D01*
X149314285Y-97652380D02*
X148742857Y-97652380D01*
X149028571Y-97652380D02*
X149028571Y-96652380D01*
X148933333Y-96795238D01*
X148838095Y-96890476D01*
X148742857Y-96938095D01*
G04 #@! TD*
%LPC*%
D10*
G04 #@! TO.C,U4*
X142430001Y-91080000D02*
X142430001Y-91569999D01*
X142430001Y-91569999D02*
X143419999Y-91569999D01*
X143419999Y-91569999D02*
X143419999Y-91080000D01*
X143419999Y-91080000D02*
X142430001Y-91080000D01*
X142430001Y-91730001D02*
X142430001Y-92220000D01*
X142430001Y-92220000D02*
X143419999Y-92220000D01*
X143419999Y-92220000D02*
X143419999Y-91730001D01*
X143419999Y-91730001D02*
X142430001Y-91730001D01*
X142430001Y-92380000D02*
X142430001Y-92869999D01*
X142430001Y-92869999D02*
X143419999Y-92869999D01*
X143419999Y-92869999D02*
X143419999Y-92380000D01*
X143419999Y-92380000D02*
X142430001Y-92380000D01*
X142430001Y-93030001D02*
X142430001Y-93520000D01*
X142430001Y-93520000D02*
X143419999Y-93520000D01*
X143419999Y-93520000D02*
X143419999Y-93030001D01*
X143419999Y-93030001D02*
X142430001Y-93030001D01*
X145380001Y-93030001D02*
X145380001Y-93520000D01*
X145380001Y-93520000D02*
X146369999Y-93520000D01*
X146369999Y-93520000D02*
X146369999Y-93030001D01*
X146369999Y-93030001D02*
X145380001Y-93030001D01*
X145380001Y-92380000D02*
X145380001Y-92869999D01*
X145380001Y-92869999D02*
X146369999Y-92869999D01*
X146369999Y-92869999D02*
X146369999Y-92380000D01*
X146369999Y-92380000D02*
X145380001Y-92380000D01*
X145380001Y-91730001D02*
X145380001Y-92220000D01*
X145380001Y-92220000D02*
X146369999Y-92220000D01*
X146369999Y-92220000D02*
X146369999Y-91730001D01*
X146369999Y-91730001D02*
X145380001Y-91730001D01*
X145380001Y-91080000D02*
X145380001Y-91569999D01*
X145380001Y-91569999D02*
X146369999Y-91569999D01*
X146369999Y-91569999D02*
X146369999Y-91080000D01*
X146369999Y-91080000D02*
X145380001Y-91080000D01*
X144400000Y-91425000D02*
X144400000Y-91425000D01*
X144400000Y-91425000D02*
X144400000Y-91425000D01*
X144400000Y-91425000D02*
X144400000Y-91425000D01*
X144400000Y-91425000D02*
X144400000Y-91425000D01*
X144400000Y-91425000D02*
X144400000Y-91425000D01*
X144400000Y-91425000D02*
X144400000Y-91425000D01*
X144400000Y-91425000D02*
X144400000Y-91425000D01*
X144400000Y-91425000D02*
X144400000Y-91425000D01*
X144400000Y-93175000D02*
X144400000Y-93175000D01*
X144400000Y-93175000D02*
X144400000Y-93175000D01*
X144400000Y-93175000D02*
X144400000Y-93175000D01*
X144400000Y-93175000D02*
X144400000Y-93175000D01*
X144400000Y-93175000D02*
X144400000Y-93175000D01*
X144400000Y-93175000D02*
X144400000Y-93175000D01*
X144400000Y-93175000D02*
X144400000Y-93175000D01*
X144400000Y-93175000D02*
X144400000Y-93175000D01*
X143853200Y-91425000D02*
X143853200Y-90725000D01*
X143853200Y-90725000D02*
X144083200Y-90725000D01*
X144083200Y-90725000D02*
X144083200Y-91425000D01*
X144083200Y-91425000D02*
X143853200Y-91425000D01*
X144946800Y-91425000D02*
X144946800Y-90725000D01*
X144946800Y-90725000D02*
X144716800Y-90725000D01*
X144716800Y-90725000D02*
X144716800Y-91425000D01*
X144716800Y-91425000D02*
X144946800Y-91425000D01*
X144946800Y-93175000D02*
X144946800Y-93875000D01*
X144946800Y-93875000D02*
X144716800Y-93875000D01*
X144716800Y-93875000D02*
X144716800Y-93175000D01*
X144716800Y-93175000D02*
X144946800Y-93175000D01*
X143853200Y-93175000D02*
X143853200Y-93875000D01*
X143853200Y-93875000D02*
X144083200Y-93875000D01*
X144083200Y-93875000D02*
X144083200Y-93175000D01*
X144083200Y-93175000D02*
X143853200Y-93175000D01*
X143586500Y-91361500D02*
X145213500Y-91361500D01*
X145213500Y-91361500D02*
X145213500Y-91706300D01*
X145213500Y-91706300D02*
X143586500Y-91706300D01*
X143586500Y-91706300D02*
X143586500Y-91361500D01*
X143586500Y-92106300D02*
X145213500Y-92106300D01*
X145213500Y-92106300D02*
X145213500Y-92493700D01*
X145213500Y-92493700D02*
X143586500Y-92493700D01*
X143586500Y-92493700D02*
X143586500Y-92106300D01*
X143586500Y-92893700D02*
X145213500Y-92893700D01*
X145213500Y-92893700D02*
X145213500Y-93238500D01*
X145213500Y-93238500D02*
X143586500Y-93238500D01*
X143586500Y-93238500D02*
X143586500Y-92893700D01*
X143586500Y-91361500D02*
X144200000Y-91361500D01*
X144200000Y-91361500D02*
X144200000Y-93238500D01*
X144200000Y-93238500D02*
X143586500Y-93238500D01*
X143586500Y-93238500D02*
X143586500Y-91361500D01*
X144600000Y-91361500D02*
X145213500Y-91361500D01*
X145213500Y-91361500D02*
X145213500Y-93238500D01*
X145213500Y-93238500D02*
X144600000Y-93238500D01*
X144600000Y-93238500D02*
X144600000Y-91361500D01*
G04 #@! TD*
D15*
G04 #@! TO.C,J1*
X154350000Y-119571994D03*
X142650001Y-119571994D03*
D16*
X150800001Y-119500000D03*
X146200000Y-119500000D03*
D17*
X152000000Y-117400000D03*
X149500001Y-117400000D03*
X147500000Y-117400000D03*
X145000002Y-117400000D03*
G04 #@! TD*
D18*
G04 #@! TO.C,R9*
X143700000Y-96200000D03*
X142200000Y-96200000D03*
G04 #@! TD*
D19*
G04 #@! TO.C,C13*
X142200000Y-98950000D03*
X142200000Y-100450000D03*
G04 #@! TD*
G04 #@! TO.C,C1*
X146100000Y-113100000D03*
X146100000Y-111600000D03*
G04 #@! TD*
G04 #@! TO.C,C2*
X149500000Y-111600000D03*
X149500000Y-113100000D03*
G04 #@! TD*
G04 #@! TO.C,C3*
X152100000Y-113100000D03*
X152100000Y-111600000D03*
G04 #@! TD*
D20*
G04 #@! TO.C,C4*
X153750000Y-94400000D03*
X155250000Y-94400000D03*
G04 #@! TD*
G04 #@! TO.C,C5*
X152150000Y-94400000D03*
X150650000Y-94400000D03*
G04 #@! TD*
D19*
G04 #@! TO.C,C6*
X145600000Y-100650000D03*
X145600000Y-99150000D03*
G04 #@! TD*
G04 #@! TO.C,C7*
X150200000Y-99150000D03*
X150200000Y-100650000D03*
G04 #@! TD*
G04 #@! TO.C,C8*
X151500000Y-99150000D03*
X151500000Y-100650000D03*
G04 #@! TD*
G04 #@! TO.C,C9*
X144300000Y-100650000D03*
X144300000Y-99150000D03*
G04 #@! TD*
G04 #@! TO.C,C10*
X152800000Y-100650000D03*
X152800000Y-99150000D03*
G04 #@! TD*
G04 #@! TO.C,C11*
X154100000Y-100650000D03*
X154100000Y-99150000D03*
G04 #@! TD*
D20*
G04 #@! TO.C,C12*
X142150000Y-97600000D03*
X143650000Y-97600000D03*
G04 #@! TD*
D19*
G04 #@! TO.C,C14*
X147300000Y-93350000D03*
X147300000Y-91850000D03*
G04 #@! TD*
G04 #@! TO.C,C15*
X148700000Y-91850000D03*
X148700000Y-93350000D03*
G04 #@! TD*
D21*
G04 #@! TO.C,F1*
X154000000Y-117050000D03*
X154000000Y-115550000D03*
G04 #@! TD*
G04 #@! TO.C,R1*
X147600000Y-114250000D03*
X147600000Y-115750000D03*
G04 #@! TD*
G04 #@! TO.C,R2*
X149100000Y-115750000D03*
X149100000Y-114250000D03*
G04 #@! TD*
D18*
G04 #@! TO.C,R3*
X151250000Y-114800000D03*
X152750000Y-114800000D03*
G04 #@! TD*
D21*
G04 #@! TO.C,R4*
X142300000Y-111850000D03*
X142300000Y-110350000D03*
G04 #@! TD*
D18*
G04 #@! TO.C,R5*
X148650000Y-100600000D03*
X147150000Y-100600000D03*
G04 #@! TD*
D21*
G04 #@! TO.C,R6*
X152500000Y-96500000D03*
X152500000Y-98000000D03*
G04 #@! TD*
G04 #@! TO.C,R7*
X153900000Y-98000000D03*
X153900000Y-96500000D03*
G04 #@! TD*
D18*
G04 #@! TO.C,R8*
X143700000Y-94700000D03*
X142200000Y-94700000D03*
G04 #@! TD*
D22*
G04 #@! TO.C,U1*
X142525000Y-114900000D03*
X142525000Y-114400000D03*
X142525000Y-113900000D03*
X143475000Y-114900000D03*
X143475000Y-114400000D03*
X143475000Y-113900000D03*
G04 #@! TD*
D23*
G04 #@! TO.C,U2*
X154285000Y-92850000D03*
X154285000Y-91900000D03*
X154285000Y-90950000D03*
X151915000Y-90950000D03*
X151915000Y-92850000D03*
G04 #@! TD*
D24*
G04 #@! TO.C,U3*
X143675000Y-109732200D03*
X144325001Y-109732200D03*
X144975000Y-109732200D03*
X145625001Y-109732200D03*
X146274999Y-109732200D03*
X146925001Y-109732200D03*
X147574999Y-109732200D03*
X148224998Y-109732200D03*
X148874999Y-109732200D03*
X149524998Y-109732200D03*
X150174999Y-109732200D03*
X150824998Y-109732200D03*
X151474999Y-109732200D03*
X152124998Y-109732200D03*
X152125000Y-102467800D03*
X151474999Y-102467800D03*
X150825000Y-102467800D03*
X150174999Y-102467800D03*
X149525001Y-102467800D03*
X148874999Y-102467800D03*
X148225001Y-102467800D03*
X147574999Y-102467800D03*
X146925001Y-102467800D03*
X146274999Y-102467800D03*
X145625001Y-102467800D03*
X144975000Y-102467800D03*
X144325001Y-102467800D03*
X143675000Y-102467800D03*
G04 #@! TD*
D25*
G04 #@! TO.C,U4*
X144400000Y-91906300D03*
X144400000Y-92693700D03*
D26*
X144400000Y-92300000D03*
D27*
X145875001Y-91325001D03*
X145875001Y-91974999D03*
X145875001Y-92625001D03*
X145875001Y-93274999D03*
X142924999Y-93274999D03*
X142924999Y-92625001D03*
X142924999Y-91974999D03*
X142924999Y-91325001D03*
G04 #@! TD*
D28*
G04 #@! TO.C,Y1*
X146700000Y-98700000D03*
X147900000Y-98700000D03*
X149100000Y-98700000D03*
G04 #@! TD*
M02*
