G04 #@! TF.GenerationSoftware,KiCad,Pcbnew,(5.1.8)-1*
G04 #@! TF.CreationDate,2021-01-24T13:56:55+09:00*
G04 #@! TF.ProjectId,USB-Audio-PCM2906,5553422d-4175-4646-996f-2d50434d3239,rev?*
G04 #@! TF.SameCoordinates,Original*
G04 #@! TF.FileFunction,Copper,L1,Top*
G04 #@! TF.FilePolarity,Positive*
%FSLAX46Y46*%
G04 Gerber Fmt 4.6, Leading zero omitted, Abs format (unit mm)*
G04 Created by KiCad (PCBNEW (5.1.8)-1) date 2021-01-24 13:56:55*
%MOMM*%
%LPD*%
G01*
G04 APERTURE LIST*
G04 #@! TA.AperFunction,EtchedComponent*
%ADD10C,0.152400*%
G04 #@! TD*
G04 #@! TA.AperFunction,ComponentPad*
%ADD11O,1.500000X3.000000*%
G04 #@! TD*
G04 #@! TA.AperFunction,ComponentPad*
%ADD12C,1.701800*%
G04 #@! TD*
G04 #@! TA.AperFunction,ComponentPad*
%ADD13C,1.498600*%
G04 #@! TD*
G04 #@! TA.AperFunction,SMDPad,CuDef*
%ADD14R,0.500000X0.900000*%
G04 #@! TD*
G04 #@! TA.AperFunction,SMDPad,CuDef*
%ADD15R,0.750000X0.800000*%
G04 #@! TD*
G04 #@! TA.AperFunction,SMDPad,CuDef*
%ADD16R,0.800000X0.750000*%
G04 #@! TD*
G04 #@! TA.AperFunction,SMDPad,CuDef*
%ADD17R,0.900000X0.500000*%
G04 #@! TD*
G04 #@! TA.AperFunction,SMDPad,CuDef*
%ADD18R,0.650000X0.250000*%
G04 #@! TD*
G04 #@! TA.AperFunction,SMDPad,CuDef*
%ADD19R,1.350000X0.600000*%
G04 #@! TD*
G04 #@! TA.AperFunction,SMDPad,CuDef*
%ADD20R,0.431000X1.639799*%
G04 #@! TD*
G04 #@! TA.AperFunction,ComponentPad*
%ADD21C,0.508000*%
G04 #@! TD*
G04 #@! TA.AperFunction,SMDPad,CuDef*
%ADD22R,1.500000X1.750000*%
G04 #@! TD*
G04 #@! TA.AperFunction,SMDPad,CuDef*
%ADD23R,0.850000X0.350000*%
G04 #@! TD*
G04 #@! TA.AperFunction,SMDPad,CuDef*
%ADD24R,0.400000X1.900000*%
G04 #@! TD*
G04 #@! TA.AperFunction,ViaPad*
%ADD25C,0.800000*%
G04 #@! TD*
G04 #@! TA.AperFunction,Conductor*
%ADD26C,0.200000*%
G04 #@! TD*
G04 #@! TA.AperFunction,Conductor*
%ADD27C,0.500000*%
G04 #@! TD*
G04 #@! TA.AperFunction,Conductor*
%ADD28C,0.400000*%
G04 #@! TD*
G04 #@! TA.AperFunction,Conductor*
%ADD29C,0.250000*%
G04 #@! TD*
G04 APERTURE END LIST*
D10*
G04 #@! TO.C,U4*
X144400000Y-91425000D02*
X144400000Y-91425000D01*
X144400000Y-91425000D02*
X144400000Y-91425000D01*
X144400000Y-91425000D02*
X144400000Y-91425000D01*
X144400000Y-91425000D02*
X144400000Y-91425000D01*
X144400000Y-91425000D02*
X144400000Y-91425000D01*
X144400000Y-91425000D02*
X144400000Y-91425000D01*
X144400000Y-91425000D02*
X144400000Y-91425000D01*
X144400000Y-91425000D02*
X144400000Y-91425000D01*
X144400000Y-93175000D02*
X144400000Y-93175000D01*
X144400000Y-93175000D02*
X144400000Y-93175000D01*
X144400000Y-93175000D02*
X144400000Y-93175000D01*
X144400000Y-93175000D02*
X144400000Y-93175000D01*
X144400000Y-93175000D02*
X144400000Y-93175000D01*
X144400000Y-93175000D02*
X144400000Y-93175000D01*
X144400000Y-93175000D02*
X144400000Y-93175000D01*
X144400000Y-93175000D02*
X144400000Y-93175000D01*
X143853200Y-91425000D02*
X143853200Y-90725000D01*
X143853200Y-90725000D02*
X144083200Y-90725000D01*
X144083200Y-90725000D02*
X144083200Y-91425000D01*
X144083200Y-91425000D02*
X143853200Y-91425000D01*
X144946800Y-91425000D02*
X144946800Y-90725000D01*
X144946800Y-90725000D02*
X144716800Y-90725000D01*
X144716800Y-90725000D02*
X144716800Y-91425000D01*
X144716800Y-91425000D02*
X144946800Y-91425000D01*
X144946800Y-93175000D02*
X144946800Y-93875000D01*
X144946800Y-93875000D02*
X144716800Y-93875000D01*
X144716800Y-93875000D02*
X144716800Y-93175000D01*
X144716800Y-93175000D02*
X144946800Y-93175000D01*
X143853200Y-93175000D02*
X143853200Y-93875000D01*
X143853200Y-93875000D02*
X144083200Y-93875000D01*
X144083200Y-93875000D02*
X144083200Y-93175000D01*
X144083200Y-93175000D02*
X143853200Y-93175000D01*
G04 #@! TD*
D11*
G04 #@! TO.P,J1,5*
G04 #@! TO.N,GND*
X154350000Y-119571994D03*
G04 #@! TO.P,J1,6*
G04 #@! TO.N,N/C*
X142650001Y-119571994D03*
D12*
G04 #@! TO.P,J1,7*
X150800001Y-119500000D03*
G04 #@! TO.P,J1,8*
X146200000Y-119500000D03*
D13*
G04 #@! TO.P,J1,1*
G04 #@! TO.N,Net-(F1-Pad2)*
X152000000Y-117400000D03*
G04 #@! TO.P,J1,2*
G04 #@! TO.N,Net-(J1-Pad2)*
X149500001Y-117400000D03*
G04 #@! TO.P,J1,3*
G04 #@! TO.N,Net-(J1-Pad3)*
X147500000Y-117400000D03*
G04 #@! TO.P,J1,4*
G04 #@! TO.N,GND*
X145000002Y-117400000D03*
G04 #@! TD*
D14*
G04 #@! TO.P,R9,1*
G04 #@! TO.N,Net-(C12-Pad2)*
X143700000Y-96200000D03*
G04 #@! TO.P,R9,2*
G04 #@! TO.N,Net-(R8-Pad2)*
X142200000Y-96200000D03*
G04 #@! TD*
D15*
G04 #@! TO.P,C13,2*
G04 #@! TO.N,Net-(C12-Pad2)*
X142200000Y-98950000D03*
G04 #@! TO.P,C13,1*
G04 #@! TO.N,GND*
X142200000Y-100450000D03*
G04 #@! TD*
G04 #@! TO.P,C1,2*
G04 #@! TO.N,GND*
X146100000Y-113100000D03*
G04 #@! TO.P,C1,1*
G04 #@! TO.N,Net-(C1-Pad1)*
X146100000Y-111600000D03*
G04 #@! TD*
G04 #@! TO.P,C2,2*
G04 #@! TO.N,Net-(C2-Pad2)*
X149500000Y-111600000D03*
G04 #@! TO.P,C2,1*
G04 #@! TO.N,GND*
X149500000Y-113100000D03*
G04 #@! TD*
G04 #@! TO.P,C3,1*
G04 #@! TO.N,GND*
X152100000Y-113100000D03*
G04 #@! TO.P,C3,2*
G04 #@! TO.N,Net-(C3-Pad2)*
X152100000Y-111600000D03*
G04 #@! TD*
D16*
G04 #@! TO.P,C4,1*
G04 #@! TO.N,VBUS*
X153750000Y-94400000D03*
G04 #@! TO.P,C4,2*
G04 #@! TO.N,GND*
X155250000Y-94400000D03*
G04 #@! TD*
G04 #@! TO.P,C5,1*
G04 #@! TO.N,+3V3*
X152150000Y-94400000D03*
G04 #@! TO.P,C5,2*
G04 #@! TO.N,GND*
X150650000Y-94400000D03*
G04 #@! TD*
D15*
G04 #@! TO.P,C6,1*
G04 #@! TO.N,Net-(C6-Pad1)*
X145600000Y-100650000D03*
G04 #@! TO.P,C6,2*
G04 #@! TO.N,GND*
X145600000Y-99150000D03*
G04 #@! TD*
G04 #@! TO.P,C7,2*
G04 #@! TO.N,GND*
X150200000Y-99150000D03*
G04 #@! TO.P,C7,1*
G04 #@! TO.N,Net-(C7-Pad1)*
X150200000Y-100650000D03*
G04 #@! TD*
G04 #@! TO.P,C8,2*
G04 #@! TO.N,GND*
X151500000Y-99150000D03*
G04 #@! TO.P,C8,1*
G04 #@! TO.N,Net-(C8-Pad1)*
X151500000Y-100650000D03*
G04 #@! TD*
G04 #@! TO.P,C9,1*
G04 #@! TO.N,Net-(C9-Pad1)*
X144300000Y-100650000D03*
G04 #@! TO.P,C9,2*
G04 #@! TO.N,GND*
X144300000Y-99150000D03*
G04 #@! TD*
G04 #@! TO.P,C10,2*
G04 #@! TO.N,Net-(C10-Pad2)*
X152800000Y-100650000D03*
G04 #@! TO.P,C10,1*
G04 #@! TO.N,Net-(C10-Pad1)*
X152800000Y-99150000D03*
G04 #@! TD*
G04 #@! TO.P,C11,1*
G04 #@! TO.N,Net-(C11-Pad1)*
X154100000Y-100650000D03*
G04 #@! TO.P,C11,2*
G04 #@! TO.N,Net-(C11-Pad2)*
X154100000Y-99150000D03*
G04 #@! TD*
D16*
G04 #@! TO.P,C12,2*
G04 #@! TO.N,Net-(C12-Pad2)*
X142150000Y-97600000D03*
G04 #@! TO.P,C12,1*
G04 #@! TO.N,GND*
X143650000Y-97600000D03*
G04 #@! TD*
D15*
G04 #@! TO.P,C14,1*
G04 #@! TO.N,+3V3*
X147300000Y-93350000D03*
G04 #@! TO.P,C14,2*
G04 #@! TO.N,GND*
X147300000Y-91850000D03*
G04 #@! TD*
G04 #@! TO.P,C15,2*
G04 #@! TO.N,GND*
X148700000Y-91850000D03*
G04 #@! TO.P,C15,1*
G04 #@! TO.N,+3V3*
X148700000Y-93350000D03*
G04 #@! TD*
D17*
G04 #@! TO.P,F1,2*
G04 #@! TO.N,Net-(F1-Pad2)*
X154000000Y-117050000D03*
G04 #@! TO.P,F1,1*
G04 #@! TO.N,VBUS*
X154000000Y-115550000D03*
G04 #@! TD*
G04 #@! TO.P,R1,1*
G04 #@! TO.N,Net-(R1-Pad1)*
X147600000Y-114250000D03*
G04 #@! TO.P,R1,2*
G04 #@! TO.N,Net-(J1-Pad3)*
X147600000Y-115750000D03*
G04 #@! TD*
G04 #@! TO.P,R2,2*
G04 #@! TO.N,Net-(J1-Pad2)*
X149100000Y-115750000D03*
G04 #@! TO.P,R2,1*
G04 #@! TO.N,Net-(R2-Pad1)*
X149100000Y-114250000D03*
G04 #@! TD*
D14*
G04 #@! TO.P,R3,1*
G04 #@! TO.N,Net-(C1-Pad1)*
X151250000Y-114800000D03*
G04 #@! TO.P,R3,2*
G04 #@! TO.N,VBUS*
X152750000Y-114800000D03*
G04 #@! TD*
D17*
G04 #@! TO.P,R4,2*
G04 #@! TO.N,Net-(R1-Pad1)*
X142300000Y-111850000D03*
G04 #@! TO.P,R4,1*
G04 #@! TO.N,Net-(C9-Pad1)*
X142300000Y-110350000D03*
G04 #@! TD*
D14*
G04 #@! TO.P,R5,2*
G04 #@! TO.N,Net-(R5-Pad2)*
X148650000Y-100600000D03*
G04 #@! TO.P,R5,1*
G04 #@! TO.N,Net-(R5-Pad1)*
X147150000Y-100600000D03*
G04 #@! TD*
D17*
G04 #@! TO.P,R6,1*
G04 #@! TO.N,Net-(R6-Pad1)*
X152500000Y-96500000D03*
G04 #@! TO.P,R6,2*
G04 #@! TO.N,Net-(C10-Pad1)*
X152500000Y-98000000D03*
G04 #@! TD*
G04 #@! TO.P,R7,2*
G04 #@! TO.N,Net-(C11-Pad2)*
X153900000Y-98000000D03*
G04 #@! TO.P,R7,1*
G04 #@! TO.N,Net-(R6-Pad1)*
X153900000Y-96500000D03*
G04 #@! TD*
D14*
G04 #@! TO.P,R8,1*
G04 #@! TO.N,Net-(C12-Pad2)*
X143700000Y-94700000D03*
G04 #@! TO.P,R8,2*
G04 #@! TO.N,Net-(R8-Pad2)*
X142200000Y-94700000D03*
G04 #@! TD*
D18*
G04 #@! TO.P,U1,3*
G04 #@! TO.N,Net-(U1-Pad3)*
X142525000Y-114900000D03*
G04 #@! TO.P,U1,2*
G04 #@! TO.N,GND*
X142525000Y-114400000D03*
G04 #@! TO.P,U1,1*
G04 #@! TO.N,Net-(R2-Pad1)*
X142525000Y-113900000D03*
G04 #@! TO.P,U1,4*
G04 #@! TO.N,Net-(U1-Pad4)*
X143475000Y-114900000D03*
G04 #@! TO.P,U1,5*
G04 #@! TO.N,Net-(C1-Pad1)*
X143475000Y-114400000D03*
G04 #@! TO.P,U1,6*
G04 #@! TO.N,Net-(R1-Pad1)*
X143475000Y-113900000D03*
G04 #@! TD*
D19*
G04 #@! TO.P,U2,1*
G04 #@! TO.N,VBUS*
X154285000Y-92850000D03*
G04 #@! TO.P,U2,2*
G04 #@! TO.N,GND*
X154285000Y-91900000D03*
G04 #@! TO.P,U2,3*
G04 #@! TO.N,EN*
X154285000Y-90950000D03*
G04 #@! TO.P,U2,4*
G04 #@! TO.N,Net-(U2-Pad4)*
X151915000Y-90950000D03*
G04 #@! TO.P,U2,5*
G04 #@! TO.N,+3V3*
X151915000Y-92850000D03*
G04 #@! TD*
D20*
G04 #@! TO.P,U3,1*
G04 #@! TO.N,Net-(R1-Pad1)*
X143675000Y-109732200D03*
G04 #@! TO.P,U3,2*
G04 #@! TO.N,Net-(R2-Pad1)*
X144325001Y-109732200D03*
G04 #@! TO.P,U3,3*
G04 #@! TO.N,Net-(C1-Pad1)*
X144975000Y-109732200D03*
G04 #@! TO.P,U3,4*
G04 #@! TO.N,GND*
X145625001Y-109732200D03*
G04 #@! TO.P,U3,5*
G04 #@! TO.N,Net-(U3-Pad5)*
X146274999Y-109732200D03*
G04 #@! TO.P,U3,6*
G04 #@! TO.N,Net-(U3-Pad6)*
X146925001Y-109732200D03*
G04 #@! TO.P,U3,7*
G04 #@! TO.N,Net-(U3-Pad7)*
X147574999Y-109732200D03*
G04 #@! TO.P,U3,8*
G04 #@! TO.N,Net-(C9-Pad1)*
X148224998Y-109732200D03*
G04 #@! TO.P,U3,9*
X148874999Y-109732200D03*
G04 #@! TO.P,U3,10*
G04 #@! TO.N,Net-(C2-Pad2)*
X149524998Y-109732200D03*
G04 #@! TO.P,U3,11*
G04 #@! TO.N,GND*
X150174999Y-109732200D03*
G04 #@! TO.P,U3,12*
G04 #@! TO.N,Net-(U3-Pad12)*
X150824998Y-109732200D03*
G04 #@! TO.P,U3,13*
G04 #@! TO.N,Net-(U3-Pad13)*
X151474999Y-109732200D03*
G04 #@! TO.P,U3,14*
G04 #@! TO.N,Net-(C3-Pad2)*
X152124998Y-109732200D03*
G04 #@! TO.P,U3,15*
G04 #@! TO.N,Net-(C11-Pad1)*
X152125000Y-102467800D03*
G04 #@! TO.P,U3,16*
G04 #@! TO.N,Net-(C10-Pad2)*
X151474999Y-102467800D03*
G04 #@! TO.P,U3,17*
G04 #@! TO.N,Net-(C8-Pad1)*
X150825000Y-102467800D03*
G04 #@! TO.P,U3,18*
G04 #@! TO.N,GND*
X150174999Y-102467800D03*
G04 #@! TO.P,U3,19*
G04 #@! TO.N,Net-(C7-Pad1)*
X149525001Y-102467800D03*
G04 #@! TO.P,U3,20*
G04 #@! TO.N,Net-(R5-Pad2)*
X148874999Y-102467800D03*
G04 #@! TO.P,U3,21*
G04 #@! TO.N,Net-(R5-Pad1)*
X148225001Y-102467800D03*
G04 #@! TO.P,U3,22*
G04 #@! TO.N,GND*
X147574999Y-102467800D03*
G04 #@! TO.P,U3,23*
G04 #@! TO.N,Net-(C6-Pad1)*
X146925001Y-102467800D03*
G04 #@! TO.P,U3,24*
G04 #@! TO.N,Net-(U3-Pad24)*
X146274999Y-102467800D03*
G04 #@! TO.P,U3,25*
G04 #@! TO.N,Net-(U3-Pad25)*
X145625001Y-102467800D03*
G04 #@! TO.P,U3,26*
G04 #@! TO.N,GND*
X144975000Y-102467800D03*
G04 #@! TO.P,U3,27*
G04 #@! TO.N,Net-(C9-Pad1)*
X144325001Y-102467800D03*
G04 #@! TO.P,U3,28*
G04 #@! TO.N,EN*
X143675000Y-102467800D03*
G04 #@! TD*
D21*
G04 #@! TO.P,U4,9*
G04 #@! TO.N,GND*
X144400000Y-91906300D03*
X144400000Y-92693700D03*
D22*
X144400000Y-92300000D03*
D23*
G04 #@! TO.P,U4,8*
G04 #@! TO.N,Net-(LS1-Pad1)*
X145875001Y-91325001D03*
G04 #@! TO.P,U4,7*
G04 #@! TO.N,GND*
X145875001Y-91974999D03*
G04 #@! TO.P,U4,6*
G04 #@! TO.N,+3V3*
X145875001Y-92625001D03*
G04 #@! TO.P,U4,5*
G04 #@! TO.N,Net-(LS1-Pad2)*
X145875001Y-93274999D03*
G04 #@! TO.P,U4,4*
G04 #@! TO.N,Net-(R8-Pad2)*
X142924999Y-93274999D03*
G04 #@! TO.P,U4,3*
G04 #@! TO.N,Net-(R6-Pad1)*
X142924999Y-92625001D03*
G04 #@! TO.P,U4,2*
G04 #@! TO.N,Net-(U4-Pad2)*
X142924999Y-91974999D03*
G04 #@! TO.P,U4,1*
G04 #@! TO.N,EN*
X142924999Y-91325001D03*
G04 #@! TD*
D24*
G04 #@! TO.P,Y1,3*
G04 #@! TO.N,Net-(R5-Pad1)*
X146700000Y-98700000D03*
G04 #@! TO.P,Y1,2*
G04 #@! TO.N,GND*
X147900000Y-98700000D03*
G04 #@! TO.P,Y1,1*
G04 #@! TO.N,Net-(R5-Pad2)*
X149100000Y-98700000D03*
G04 #@! TD*
D25*
G04 #@! TO.N,GND*
X145600000Y-108200000D03*
X150200000Y-108200000D03*
X147200000Y-113200000D03*
X150600000Y-113500000D03*
X153200000Y-113500000D03*
X142000000Y-115700000D03*
X150200000Y-103900000D03*
X147600000Y-103900000D03*
X145000000Y-103900000D03*
X151350000Y-98050000D03*
X150200000Y-98100000D03*
X147900000Y-97200000D03*
X145900000Y-98000000D03*
X155200000Y-95300000D03*
X149500000Y-94400000D03*
X149590553Y-91000000D03*
X143300000Y-98700000D03*
G04 #@! TO.N,Net-(C1-Pad1)*
X144600000Y-113900000D03*
X147600000Y-111500000D03*
G04 #@! TO.N,Net-(LS1-Pad1)*
X146700000Y-91000000D03*
G04 #@! TO.N,Net-(LS1-Pad2)*
X151450000Y-95600000D03*
G04 #@! TO.N,Net-(R2-Pad1)*
X143400000Y-112700000D03*
X144400000Y-111800000D03*
G04 #@! TO.N,Net-(R6-Pad1)*
X144800000Y-94600000D03*
X141950000Y-92600000D03*
G04 #@! TD*
D26*
G04 #@! TO.N,GND*
X145625001Y-108225001D02*
X145600000Y-108200000D01*
X145625001Y-109732200D02*
X145625001Y-108225001D01*
X150174999Y-108225001D02*
X150200000Y-108200000D01*
X150174999Y-109732200D02*
X150174999Y-108225001D01*
X146100000Y-113100000D02*
X147100000Y-113100000D01*
X147100000Y-113100000D02*
X147200000Y-113200000D01*
X150200000Y-113100000D02*
X150600000Y-113500000D01*
X149500000Y-113100000D02*
X150200000Y-113100000D01*
X152800000Y-113100000D02*
X153200000Y-113500000D01*
X152100000Y-113100000D02*
X152800000Y-113100000D01*
X141947599Y-115647599D02*
X142000000Y-115700000D01*
X141947599Y-114452401D02*
X141947599Y-115647599D01*
X142000000Y-114400000D02*
X141947599Y-114452401D01*
X142525000Y-114400000D02*
X142000000Y-114400000D01*
X150174999Y-103874999D02*
X150200000Y-103900000D01*
X150174999Y-102467800D02*
X150174999Y-103874999D01*
X147574999Y-103874999D02*
X147600000Y-103900000D01*
X147574999Y-102467800D02*
X147574999Y-103874999D01*
X144975000Y-103875000D02*
X145000000Y-103900000D01*
X144975000Y-102467800D02*
X144975000Y-103875000D01*
X150200000Y-99150000D02*
X150200000Y-98100000D01*
X147900000Y-98700000D02*
X147900000Y-97200000D01*
X145600000Y-98300000D02*
X145900000Y-98000000D01*
X145600000Y-99150000D02*
X145600000Y-98300000D01*
D27*
X155034322Y-91900000D02*
X154285000Y-91900000D01*
X155362401Y-92228079D02*
X155034322Y-91900000D01*
X155362401Y-94287599D02*
X155362401Y-92228079D01*
X155250000Y-94400000D02*
X155362401Y-94287599D01*
X150650000Y-94400000D02*
X149500000Y-94400000D01*
X146975001Y-91974999D02*
X147100000Y-91850000D01*
X145875001Y-91974999D02*
X146975001Y-91974999D01*
X147100000Y-91850000D02*
X148500000Y-91850000D01*
X148740553Y-91850000D02*
X149590553Y-91000000D01*
X148500000Y-91850000D02*
X148740553Y-91850000D01*
X155250000Y-95250000D02*
X155236323Y-95263677D01*
X155250000Y-94400000D02*
X155250000Y-95250000D01*
D26*
X151500000Y-98200000D02*
X151350000Y-98050000D01*
X151500000Y-99150000D02*
X151500000Y-98200000D01*
X143650000Y-98350000D02*
X143300000Y-98700000D01*
X143650000Y-97600000D02*
X143650000Y-98350000D01*
X143750000Y-99150000D02*
X143300000Y-98700000D01*
X144300000Y-99150000D02*
X143750000Y-99150000D01*
X143300000Y-99350000D02*
X143300000Y-98700000D01*
X142200000Y-100450000D02*
X143300000Y-99350000D01*
G04 #@! TO.N,Net-(C1-Pad1)*
X145950000Y-111450000D02*
X146100000Y-111600000D01*
X146100000Y-111900000D02*
X146100000Y-111600000D01*
X146748384Y-111600000D02*
X146100000Y-111600000D01*
X144100000Y-114400000D02*
X144600000Y-113900000D01*
X143475000Y-114400000D02*
X144100000Y-114400000D01*
X147174192Y-111925808D02*
X147074192Y-111925808D01*
X147600000Y-111500000D02*
X147174192Y-111925808D01*
X147074192Y-111925808D02*
X146748384Y-111600000D01*
X144975000Y-110475000D02*
X146100000Y-111600000D01*
X144975000Y-109732200D02*
X144975000Y-110475000D01*
X147716341Y-112252401D02*
X147389748Y-111925808D01*
X147389748Y-111925808D02*
X147074192Y-111925808D01*
X151252402Y-114797598D02*
X151252402Y-113186846D01*
X151250000Y-114800000D02*
X151252402Y-114797598D01*
X151252402Y-113186846D02*
X150317957Y-112252401D01*
X150317957Y-112252401D02*
X147716341Y-112252401D01*
G04 #@! TO.N,Net-(C2-Pad2)*
X149500000Y-109757198D02*
X149524998Y-109732200D01*
X149500000Y-111600000D02*
X149500000Y-109757198D01*
G04 #@! TO.N,Net-(C3-Pad2)*
X152100000Y-109757198D02*
X152124998Y-109732200D01*
X152100000Y-111600000D02*
X152100000Y-109757198D01*
G04 #@! TO.N,VBUS*
X153500000Y-115550000D02*
X152750000Y-114800000D01*
X154000000Y-115550000D02*
X153500000Y-115550000D01*
D27*
X153750000Y-93385000D02*
X154285000Y-92850000D01*
X153750000Y-94400000D02*
X153750000Y-93385000D01*
X154000000Y-115550000D02*
X155052401Y-114497599D01*
X153750000Y-94700001D02*
X153750000Y-94400000D01*
X153750000Y-94400000D02*
X153750000Y-95050000D01*
X153750000Y-95050000D02*
X154547599Y-95847599D01*
X155052401Y-96339955D02*
X155052401Y-114497599D01*
X154560045Y-95847599D02*
X155052401Y-96339955D01*
X154547599Y-95847599D02*
X154560045Y-95847599D01*
G04 #@! TO.N,+3V3*
X151815000Y-92950000D02*
X151915000Y-92850000D01*
X151915000Y-94165000D02*
X152150000Y-94400000D01*
X151915000Y-92850000D02*
X151915000Y-94165000D01*
X149000000Y-92850000D02*
X148500000Y-93350000D01*
X151915000Y-92850000D02*
X149000000Y-92850000D01*
X148700000Y-93350000D02*
X147300000Y-93350000D01*
D28*
X146575001Y-92625001D02*
X147300000Y-93350000D01*
X145875001Y-92625001D02*
X146575001Y-92625001D01*
D26*
G04 #@! TO.N,Net-(C6-Pad1)*
X146127100Y-100650000D02*
X145600000Y-100650000D01*
X146925001Y-101447901D02*
X146127100Y-100650000D01*
X146925001Y-102467800D02*
X146925001Y-101447901D01*
G04 #@! TO.N,Net-(C7-Pad1)*
X149525001Y-101324999D02*
X150200000Y-100650000D01*
X149525001Y-102467800D02*
X149525001Y-101324999D01*
G04 #@! TO.N,Net-(C8-Pad1)*
X151500000Y-100772901D02*
X151500000Y-100650000D01*
X150825000Y-101447901D02*
X151500000Y-100772901D01*
X150825000Y-102467800D02*
X150825000Y-101447901D01*
G04 #@! TO.N,Net-(C9-Pad1)*
X144300000Y-102442799D02*
X144325001Y-102467800D01*
X144300000Y-100650000D02*
X144300000Y-102442799D01*
X142300000Y-109617479D02*
X143617479Y-108300000D01*
X142300000Y-110350000D02*
X142300000Y-109617479D01*
X148224998Y-108712301D02*
X148224998Y-109732200D01*
X147812697Y-108300000D02*
X148224998Y-108712301D01*
X147812697Y-108300000D02*
X148500000Y-108300000D01*
X148874999Y-108674999D02*
X148874999Y-109732200D01*
X148500000Y-108300000D02*
X148874999Y-108674999D01*
X144325001Y-108274999D02*
X144300000Y-108300000D01*
X144325001Y-102467800D02*
X144325001Y-108274999D01*
X143617479Y-108300000D02*
X144300000Y-108300000D01*
X144300000Y-108300000D02*
X145052402Y-107547598D01*
X147060295Y-107547598D02*
X147812697Y-108300000D01*
X145052402Y-107547598D02*
X147060295Y-107547598D01*
G04 #@! TO.N,Net-(C10-Pad2)*
X152054500Y-101395500D02*
X152800000Y-100650000D01*
X151527400Y-101395500D02*
X152054500Y-101395500D01*
X151474999Y-101447901D02*
X151527400Y-101395500D01*
X151474999Y-102467800D02*
X151474999Y-101447901D01*
G04 #@! TO.N,Net-(C10-Pad1)*
X152800000Y-99150000D02*
X152800000Y-98000000D01*
G04 #@! TO.N,Net-(C11-Pad1)*
X152282200Y-102467800D02*
X154100000Y-100650000D01*
X152125000Y-102467800D02*
X152282200Y-102467800D01*
G04 #@! TO.N,Net-(C11-Pad2)*
X154100000Y-98100000D02*
X154200000Y-98000000D01*
X154100000Y-99150000D02*
X154100000Y-98100000D01*
D29*
G04 #@! TO.N,Net-(C12-Pad2)*
X142200000Y-98950000D02*
X142200000Y-98824322D01*
D26*
X143700000Y-94700000D02*
X143700000Y-96200000D01*
X143550000Y-96200000D02*
X142150000Y-97600000D01*
X143700000Y-96200000D02*
X143550000Y-96200000D01*
X142150000Y-98900000D02*
X142200000Y-98950000D01*
X142150000Y-97600000D02*
X142150000Y-98900000D01*
G04 #@! TO.N,Net-(F1-Pad2)*
X152350000Y-117050000D02*
X152000000Y-117400000D01*
D27*
X154000000Y-117050000D02*
X152350000Y-117050000D01*
G04 #@! TO.N,Net-(LS1-Pad1)*
X145877413Y-91322589D02*
X145875001Y-91322589D01*
X146200002Y-91000000D02*
X145877413Y-91322589D01*
X146700000Y-91000000D02*
X146200002Y-91000000D01*
G04 #@! TO.N,Net-(LS1-Pad2)*
X147525002Y-95600000D02*
X151450000Y-95600000D01*
X145875001Y-93949999D02*
X147525002Y-95600000D01*
X145875001Y-93274999D02*
X145875001Y-93949999D01*
D26*
G04 #@! TO.N,Net-(R1-Pad1)*
X147600000Y-114250000D02*
X147600000Y-114275000D01*
X143675000Y-111904322D02*
X143675000Y-109732200D01*
X147600000Y-114250000D02*
X146020678Y-114250000D01*
X143620678Y-111850000D02*
X143675000Y-111904322D01*
X142300000Y-111850000D02*
X143620678Y-111850000D01*
X143475000Y-113900000D02*
X143600000Y-113900000D01*
X143600000Y-113900000D02*
X144635339Y-112864661D01*
X146020678Y-114250000D02*
X144635339Y-112864661D01*
X144499107Y-112864661D02*
X143675000Y-112040554D01*
X144635339Y-112864661D02*
X144499107Y-112864661D01*
X143675000Y-112040554D02*
X143675000Y-111904322D01*
G04 #@! TO.N,Net-(J1-Pad3)*
X147600000Y-117300000D02*
X147500000Y-117400000D01*
X147600000Y-115750000D02*
X147600000Y-117300000D01*
G04 #@! TO.N,Net-(J1-Pad2)*
X149100000Y-116999999D02*
X149500001Y-117400000D01*
X149100000Y-115750000D02*
X149100000Y-116999999D01*
G04 #@! TO.N,Net-(R2-Pad1)*
X149100000Y-114250000D02*
X149025000Y-114250000D01*
X144325001Y-111054323D02*
X144325001Y-109732200D01*
X142525000Y-113575000D02*
X143400000Y-112700000D01*
X142525000Y-113900000D02*
X142525000Y-113575000D01*
X144685339Y-111514661D02*
X144685339Y-111414661D01*
X144400000Y-111800000D02*
X144685339Y-111514661D01*
X144685339Y-111414661D02*
X144325001Y-111054323D01*
X147513154Y-112547598D02*
X147197598Y-112547598D01*
X145523079Y-112252401D02*
X144685339Y-111414661D01*
X146902401Y-112252401D02*
X145523079Y-112252401D01*
X147197598Y-112547598D02*
X146902401Y-112252401D01*
X149100000Y-114250000D02*
X149100000Y-114134444D01*
X149100000Y-114134444D02*
X147513154Y-112547598D01*
G04 #@! TO.N,Net-(R5-Pad2)*
X148874999Y-100824999D02*
X148650000Y-100600000D01*
X148874999Y-102467800D02*
X148874999Y-100824999D01*
X148650000Y-99150000D02*
X149100000Y-98700000D01*
X148650000Y-100600000D02*
X148650000Y-99150000D01*
G04 #@! TO.N,Net-(R5-Pad1)*
X148225001Y-101675001D02*
X147150000Y-100600000D01*
X148225001Y-102467800D02*
X148225001Y-101675001D01*
X147150000Y-99150000D02*
X146700000Y-98700000D01*
X147150000Y-100600000D02*
X147150000Y-99150000D01*
G04 #@! TO.N,Net-(R6-Pad1)*
X142899998Y-92600000D02*
X142924999Y-92625001D01*
X142000000Y-92600000D02*
X142899998Y-92600000D01*
X154100000Y-96500000D02*
X152700000Y-96500000D01*
X146700000Y-96500000D02*
X144800000Y-94600000D01*
X152800000Y-96500000D02*
X146700000Y-96500000D01*
G04 #@! TO.N,Net-(R8-Pad2)*
X142200000Y-93906298D02*
X142924999Y-93181299D01*
X142200000Y-94700000D02*
X142200000Y-93906298D01*
X142200000Y-94700000D02*
X142200000Y-96200000D01*
G04 #@! TO.N,EN*
X152762690Y-90302690D02*
X153410000Y-90950000D01*
X143717086Y-90302690D02*
X152762690Y-90302690D01*
X142924999Y-91231301D02*
X142924999Y-91094777D01*
X142299999Y-91231301D02*
X142924999Y-91231301D01*
X153410000Y-90950000D02*
X154285000Y-90950000D01*
X141386275Y-92145025D02*
X142299999Y-91231301D01*
X142924999Y-91094777D02*
X143717086Y-90302690D01*
X141386275Y-100179075D02*
X141386275Y-92145025D01*
D29*
X142943478Y-102467800D02*
X143675000Y-102467800D01*
X141386275Y-100910597D02*
X142943478Y-102467800D01*
X141386275Y-100179075D02*
X141386275Y-100910597D01*
G04 #@! TD*
M02*
